<svg xmlns="http://www.w3.org/2000/svg" viewBox="0 0 900 70" width="900" height="70" font-family="Segoe UI, Ubuntu, Helvetica, Arial, sans-serif">
<title>sky</title><g transform="translate(493,43) scale(0.78)"><path d="M0 -5 L1.2 -1.2 L5 0 L1.2 1.2 L0 5 L-1.2 1.2 L-5 0 L-1.2 -1.2 Z" fill="#D9E6F5" opacity="0.2"><animate attributeName="opacity" values="0.15;0.9;0.15" keyTimes="0;0.5;1" dur="4.1s" begin="3.1s" repeatCount="indefinite"/></path></g><circle cx="631" cy="20" r="1.3" fill="#D9E6F5" opacity="0.2"><animate attributeName="opacity" values="0.1;0.8;0.1" keyTimes="0;0.5;1" dur="2.3s" begin="2.0s" repeatCount="indefinite"/></circle><circle cx="842" cy="19" r="1.0" fill="#D9E6F5" opacity="0.2"><animate attributeName="opacity" values="0.1;0.8;0.1" keyTimes="0;0.5;1" dur="2.1s" begin="1.2s" repeatCount="indefinite"/></circle><g transform="translate(859,52) scale(0.76)"><path d="M0 -5 L1.2 -1.2 L5 0 L1.2 1.2 L0 5 L-1.2 1.2 L-5 0 L-1.2 -1.2 Z" fill="#D9E6F5" opacity="0.2"><animate attributeName="opacity" values="0.15;0.9;0.15" keyTimes="0;0.5;1" dur="3.5s" begin="2.4s" repeatCount="indefinite"/></path></g><circle cx="493" cy="49" r="1.3" fill="#D9E6F5" opacity="0.2"><animate attributeName="opacity" values="0.1;0.8;0.1" keyTimes="0;0.5;1" dur="3.8s" begin="2.6s" repeatCount="indefinite"/></circle><circle cx="571" cy="12" r="1.0" fill="#D9E6F5" opacity="0.2"><animate attributeName="opacity" values="0.1;0.8;0.1" keyTimes="0;0.5;1" dur="2.0s" begin="0.8s" repeatCount="indefinite"/></circle><g transform="translate(60,57) scale(0.94)"><path d="M0 -5 L1.2 -1.2 L5 0 L1.2 1.2 L0 5 L-1.2 1.2 L-5 0 L-1.2 -1.2 Z" fill="#D9E6F5" opacity="0.2"><animate attributeName="opacity" values="0.15;0.9;0.15" keyTimes="0;0.5;1" dur="3.1s" begin="1.8s" repeatCount="indefinite"/></path></g><circle cx="561" cy="22" r="1.3" fill="#D9E6F5" opacity="0.2"><animate attributeName="opacity" values="0.1;0.8;0.1" keyTimes="0;0.5;1" dur="3.5s" begin="2.0s" repeatCount="indefinite"/></circle><circle cx="498" cy="49" r="1.5" fill="#D9E6F5" opacity="0.2"><animate attributeName="opacity" values="0.1;0.8;0.1" keyTimes="0;0.5;1" dur="2.6s" begin="4.0s" repeatCount="indefinite"/></circle><defs><path id="spet" d="M0 0 C-4 -5 -4 -13 0 -17 C4 -13 4 -5 0 0 Z"/><path id="sleaf" d="M0 0 Q-7 -3 -9 -10 Q-3 -8 0 0 Z"/></defs><g transform="translate(220,40)"><g><animateTransform attributeName="transform" type="translate" values="0 3;0 -6;0 3" calcMode="spline" keySplines="0.4 0 0.6 1;0.4 0 0.6 1" keyTimes="0;0.5;1" dur="6.0s" begin="1.0s" repeatCount="indefinite"/><circle r="2" fill="#FF9075" opacity="0"><animate attributeName="opacity" values="0;0.55;0" keyTimes="0;0.5;1" dur="6.0s" begin="1.0s" repeatCount="indefinite"/></circle></g></g><g transform="translate(470,55)"><g><animateTransform attributeName="transform" type="translate" values="0 3;0 -6;0 3" calcMode="spline" keySplines="0.4 0 0.6 1;0.4 0 0.6 1" keyTimes="0;0.5;1" dur="7.5s" begin="2.2s" repeatCount="indefinite"/><circle r="2" fill="#FFD0BE" opacity="0"><animate attributeName="opacity" values="0;0.55;0" keyTimes="0;0.5;1" dur="7.5s" begin="2.2s" repeatCount="indefinite"/></circle></g></g><g transform="translate(650,35)"><g><animateTransform attributeName="transform" type="translate" values="0 3;0 -6;0 3" calcMode="spline" keySplines="0.4 0 0.6 1;0.4 0 0.6 1" keyTimes="0;0.5;1" dur="6.8s" begin="3.1s" repeatCount="indefinite"/><circle r="2" fill="#FFA584" opacity="0"><animate attributeName="opacity" values="0;0.55;0" keyTimes="0;0.5;1" dur="6.8s" begin="3.1s" repeatCount="indefinite"/></circle></g></g><defs><linearGradient id="fogg" x1="0" y1="0" x2="1" y2="0"><stop offset="0" stop-color="#525C68" stop-opacity="0"/><stop offset="0.18" stop-color="#525C68" stop-opacity="1"/><stop offset="0.82" stop-color="#525C68" stop-opacity="1"/><stop offset="1" stop-color="#525C68" stop-opacity="0"/></linearGradient></defs><rect x="60" y="12" width="500" height="13" rx="6.5" fill="url(#fogg)" opacity="0.38"><animateTransform attributeName="transform" type="translate" values="0 0;90 0;0 0" calcMode="spline" keySplines="0.4 0 0.6 1;0.4 0 0.6 1" keyTimes="0;0.5;1" dur="30s" repeatCount="indefinite"/></rect><rect x="300" y="28" width="560" height="14" rx="7.0" fill="url(#fogg)" opacity="0.34"><animateTransform attributeName="transform" type="translate" values="0 0;-90 0;0 0" calcMode="spline" keySplines="0.4 0 0.6 1;0.4 0 0.6 1" keyTimes="0;0.5;1" dur="38s" repeatCount="indefinite"/></rect><rect x="-40" y="42" width="480" height="13" rx="6.5" fill="url(#fogg)" opacity="0.3"><animateTransform attributeName="transform" type="translate" values="0 0;90 0;0 0" calcMode="spline" keySplines="0.4 0 0.6 1;0.4 0 0.6 1" keyTimes="0;0.5;1" dur="33s" repeatCount="indefinite"/></rect><rect x="420" y="52" width="460" height="12" rx="6.0" fill="url(#fogg)" opacity="0.26"><animateTransform attributeName="transform" type="translate" values="0 0;-90 0;0 0" calcMode="spline" keySplines="0.4 0 0.6 1;0.4 0 0.6 1" keyTimes="0;0.5;1" dur="42s" repeatCount="indefinite"/></rect><text x="893" y="64" text-anchor="end" font-size="9" letter-spacing="1.5" fill="#8b949e">LIVE SKY · FOG · SUMMER</text></svg>
