<svg xmlns="http://www.w3.org/2000/svg" viewBox="0 0 900 70" width="900" height="70">
<title>sky</title>
<defs><path id="spet" d="M0 0 C-4 -5 -4 -13 0 -17 C4 -13 4 -5 0 0 Z"/></defs>
<g transform="translate(120,30) scale(0.8)"><g opacity="0"><animate attributeName="opacity" values="0;0.8;0" keyTimes="0;0.5;1" dur="3.4s" begin="0.5s" repeatCount="indefinite"/><animateTransform attributeName="transform" type="rotate" from="0" to="90" dur="3.4s" begin="0.5s" repeatCount="indefinite"/><path d="M0 -7 L1.6 -1.6 L7 0 L1.6 1.6 L0 7 L-1.6 1.6 L-7 0 L-1.6 -1.6 Z" fill="#F4B183"/></g></g>
<g transform="translate(330,50) scale(0.6)"><g opacity="0"><animate attributeName="opacity" values="0;0.8;0" keyTimes="0;0.5;1" dur="4.2s" begin="1.6s" repeatCount="indefinite"/><animateTransform attributeName="transform" type="rotate" from="0" to="90" dur="4.2s" begin="1.6s" repeatCount="indefinite"/><path d="M0 -7 L1.6 -1.6 L7 0 L1.6 1.6 L0 7 L-1.6 1.6 L-7 0 L-1.6 -1.6 Z" fill="#F4B183"/></g></g>
<g transform="translate(560,22) scale(0.9)"><g opacity="0"><animate attributeName="opacity" values="0;0.8;0" keyTimes="0;0.5;1" dur="3.8s" begin="2.4s" repeatCount="indefinite"/><animateTransform attributeName="transform" type="rotate" from="0" to="90" dur="3.8s" begin="2.4s" repeatCount="indefinite"/><path d="M0 -7 L1.6 -1.6 L7 0 L1.6 1.6 L0 7 L-1.6 1.6 L-7 0 L-1.6 -1.6 Z" fill="#F4B183"/></g></g>
<g transform="translate(720,48) scale(0.7)"><g opacity="0"><animate attributeName="opacity" values="0;0.8;0" keyTimes="0;0.5;1" dur="4.4s" begin="0.9s" repeatCount="indefinite"/><animateTransform attributeName="transform" type="rotate" from="0" to="90" dur="4.4s" begin="0.9s" repeatCount="indefinite"/><path d="M0 -7 L1.6 -1.6 L7 0 L1.6 1.6 L0 7 L-1.6 1.6 L-7 0 L-1.6 -1.6 Z" fill="#F4B183"/></g></g>
<g transform="translate(860,28) scale(0.6)"><g opacity="0"><animate attributeName="opacity" values="0;0.8;0" keyTimes="0;0.5;1" dur="3.6s" begin="3.0s" repeatCount="indefinite"/><animateTransform attributeName="transform" type="rotate" from="0" to="90" dur="3.6s" begin="3.0s" repeatCount="indefinite"/><path d="M0 -7 L1.6 -1.6 L7 0 L1.6 1.6 L0 7 L-1.6 1.6 L-7 0 L-1.6 -1.6 Z" fill="#F4B183"/></g></g>
<g transform="translate(220,40)"><g><animateTransform attributeName="transform" type="translate" values="0 3;0 -6;0 3" calcMode="spline" keySplines="0.4 0 0.6 1;0.4 0 0.6 1" keyTimes="0;0.5;1" dur="6.0s" begin="1.0s" repeatCount="indefinite"/><circle r="2" fill="#F4795B" opacity="0"><animate attributeName="opacity" values="0;0.55;0" keyTimes="0;0.5;1" dur="6.0s" begin="1.0s" repeatCount="indefinite"/></circle></g></g>
<g transform="translate(470,55)"><g><animateTransform attributeName="transform" type="translate" values="0 3;0 -6;0 3" calcMode="spline" keySplines="0.4 0 0.6 1;0.4 0 0.6 1" keyTimes="0;0.5;1" dur="7.5s" begin="2.2s" repeatCount="indefinite"/><circle r="2" fill="#FBC7B3" opacity="0"><animate attributeName="opacity" values="0;0.55;0" keyTimes="0;0.5;1" dur="7.5s" begin="2.2s" repeatCount="indefinite"/></circle></g></g>
<g transform="translate(650,35)"><g><animateTransform attributeName="transform" type="translate" values="0 3;0 -6;0 3" calcMode="spline" keySplines="0.4 0 0.6 1;0.4 0 0.6 1" keyTimes="0;0.5;1" dur="6.8s" begin="3.1s" repeatCount="indefinite"/><circle r="2" fill="#ED8B66" opacity="0"><animate attributeName="opacity" values="0;0.55;0" keyTimes="0;0.5;1" dur="6.8s" begin="3.1s" repeatCount="indefinite"/></circle></g></g>
<g transform="translate(260,-8)" opacity="0"><animate attributeName="opacity" values="0;0.65;0.65;0" keyTimes="0;0.1;0.75;1" dur="9s" begin="0.8s" repeatCount="indefinite"/><g><animateTransform attributeName="transform" type="translate" values="0 0;26 45;52 90" keyTimes="0;0.5;1" dur="9s" begin="0.8s" repeatCount="indefinite"/><use href="#spet" fill="#FBC7B3"><animateTransform attributeName="transform" type="rotate" values="0;170;350" keyTimes="0;0.5;1" dur="9s" begin="0.8s" repeatCount="indefinite"/></use></g></g>
<g transform="translate(700,-8)" opacity="0"><animate attributeName="opacity" values="0;0.65;0.65;0" keyTimes="0;0.1;0.75;1" dur="11s" begin="3.5s" repeatCount="indefinite"/><g><animateTransform attributeName="transform" type="translate" values="0 0;-30 45;-60 90" keyTimes="0;0.5;1" dur="11s" begin="3.5s" repeatCount="indefinite"/><use href="#spet" fill="#F4795B"><animateTransform attributeName="transform" type="rotate" values="0;170;350" keyTimes="0;0.5;1" dur="11s" begin="3.5s" repeatCount="indefinite"/></use></g></g>
<g opacity="0"><animate attributeName="opacity" values="0;0.95;0.95;0" keyTimes="0;0.05;0.95;1" dur="15s" begin="1s" repeatCount="indefinite"/><g><animateMotion dur="15s" begin="1s" repeatCount="indefinite" rotate="auto" path="M880 30 C700 60 560 5 420 40 C300 68 160 15 20 38 C160 62 340 20 520 50 C680 72 800 45 880 30"/><g><animateTransform attributeName="transform" type="scale" values="1 1;1 0.3;1 1" keyTimes="0;0.5;1" dur="0.5s" repeatCount="indefinite"/><path d="M1 -1 C 7 -15, -13 -17, -6 -2 Z" fill="#F4795B" opacity="0.9"/><path d="M-3 -1 C -7 -13, -17 -8, -9 -1 Z" fill="#FBC7B3" opacity="0.85"/><path d="M1 1 C 7 15, -13 17, -6 2 Z" fill="#F4795B" opacity="0.9"/><path d="M-3 1 C -7 13, -17 8, -9 1 Z" fill="#FBC7B3" opacity="0.85"/></g><ellipse rx="5.5" ry="1.8" fill="#A33D22"/><path d="M5 -1 Q 9 -5 11 -6 M5 1 Q 9 5 11 6" stroke="#A33D22" stroke-width="0.8" fill="none"/></g></g>
</svg>
