<svg xmlns="http://www.w3.org/2000/svg" viewBox="0 0 900 70" width="900" height="70" font-family="Segoe UI, Ubuntu, Helvetica, Arial, sans-serif">
<title>sky</title><defs><path id="spet" d="M0 0 C-4 -5 -4 -13 0 -17 C4 -13 4 -5 0 0 Z"/><path id="sleaf" d="M0 0 Q-7 -3 -9 -10 Q-3 -8 0 0 Z"/></defs><g transform="translate(220,40)"><g><animateTransform attributeName="transform" type="translate" values="0 3;0 -6;0 3" calcMode="spline" keySplines="0.4 0 0.6 1;0.4 0 0.6 1" keyTimes="0;0.5;1" dur="6.0s" begin="1.0s" repeatCount="indefinite"/><circle r="2" fill="#F4795B" opacity="0"><animate attributeName="opacity" values="0;0.55;0" keyTimes="0;0.5;1" dur="6.0s" begin="1.0s" repeatCount="indefinite"/></circle></g></g><g transform="translate(470,55)"><g><animateTransform attributeName="transform" type="translate" values="0 3;0 -6;0 3" calcMode="spline" keySplines="0.4 0 0.6 1;0.4 0 0.6 1" keyTimes="0;0.5;1" dur="7.5s" begin="2.2s" repeatCount="indefinite"/><circle r="2" fill="#FBC7B3" opacity="0"><animate attributeName="opacity" values="0;0.55;0" keyTimes="0;0.5;1" dur="7.5s" begin="2.2s" repeatCount="indefinite"/></circle></g></g><g transform="translate(650,35)"><g><animateTransform attributeName="transform" type="translate" values="0 3;0 -6;0 3" calcMode="spline" keySplines="0.4 0 0.6 1;0.4 0 0.6 1" keyTimes="0;0.5;1" dur="6.8s" begin="3.1s" repeatCount="indefinite"/><circle r="2" fill="#ED8B66" opacity="0"><animate attributeName="opacity" values="0;0.55;0" keyTimes="0;0.5;1" dur="6.8s" begin="3.1s" repeatCount="indefinite"/></circle></g></g><g opacity="0.75"><g><animateTransform attributeName="transform" type="translate" values="-180 12;1000 12" dur="80s" begin="-20s" repeatCount="indefinite"/><g transform="scale(0.85)"><path d="M-38 8 C -44 8 -48 3 -46 -2 C -44.5 -6 -40 -8 -36 -7 C -35 -13 -28 -16.5 -21 -15 C -18 -20.5 -9 -22 -3 -18.5 C 2 -22 11 -21 15 -16.5 C 22 -18 30 -14 31 -8 C 36 -7.5 39 -3 37.5 1.5 C 36 6.5 31 8 27 8 Z" fill="#8E9DB2"/><ellipse cx="-4" cy="5" rx="34" ry="5" fill="#6C7B92" opacity="0.3"/></g></g></g><g opacity="0.85"><g><animateTransform attributeName="transform" type="translate" values="-180 18;1000 18" dur="62s" begin="-48s" repeatCount="indefinite"/><g transform="scale(1.1)"><path d="M-38 8 C -44 8 -48 3 -46 -2 C -44.5 -6 -40 -8 -36 -7 C -35 -13 -28 -16.5 -21 -15 C -18 -20.5 -9 -22 -3 -18.5 C 2 -22 11 -21 15 -16.5 C 22 -18 30 -14 31 -8 C 36 -7.5 39 -3 37.5 1.5 C 36 6.5 31 8 27 8 Z" fill="#8E9DB2"/><ellipse cx="-4" cy="5" rx="34" ry="5" fill="#6C7B92" opacity="0.3"/></g></g></g><g opacity="0.7"><g><animateTransform attributeName="transform" type="translate" values="-180 10;1000 10" dur="92s" begin="-70s" repeatCount="indefinite"/><g transform="scale(0.7)"><path d="M-38 8 C -44 8 -48 3 -46 -2 C -44.5 -6 -40 -8 -36 -7 C -35 -13 -28 -16.5 -21 -15 C -18 -20.5 -9 -22 -3 -18.5 C 2 -22 11 -21 15 -16.5 C 22 -18 30 -14 31 -8 C 36 -7.5 39 -3 37.5 1.5 C 36 6.5 31 8 27 8 Z" fill="#8E9DB2"/><ellipse cx="-4" cy="5" rx="34" ry="5" fill="#6C7B92" opacity="0.3"/></g></g></g><g><animateTransform attributeName="transform" type="translate" values="0 -14;0 86" dur="1.02s" begin="-0.92s" repeatCount="indefinite"/><line x1="790" y1="0" x2="786.5" y2="9" stroke="#8FA8C4" stroke-width="1" stroke-linecap="round" opacity="0.35"/></g><g><animateTransform attributeName="transform" type="translate" values="0 -14;0 86" dur="1.02s" begin="-0.23s" repeatCount="indefinite"/><line x1="309" y1="0" x2="305.5" y2="9" stroke="#8FA8C4" stroke-width="1" stroke-linecap="round" opacity="0.35"/></g><g><animateTransform attributeName="transform" type="translate" values="0 -14;0 86" dur="1.16s" begin="-0.66s" repeatCount="indefinite"/><line x1="647" y1="0" x2="643.5" y2="9" stroke="#8FA8C4" stroke-width="1" stroke-linecap="round" opacity="0.35"/></g><g><animateTransform attributeName="transform" type="translate" values="0 -14;0 86" dur="1.11s" begin="-0.13s" repeatCount="indefinite"/><line x1="74" y1="0" x2="70.5" y2="9" stroke="#8FA8C4" stroke-width="1" stroke-linecap="round" opacity="0.35"/></g><g><animateTransform attributeName="transform" type="translate" values="0 -14;0 86" dur="0.99s" begin="-1.04s" repeatCount="indefinite"/><line x1="513" y1="0" x2="509.5" y2="9" stroke="#8FA8C4" stroke-width="1" stroke-linecap="round" opacity="0.35"/></g><g><animateTransform attributeName="transform" type="translate" values="0 -14;0 86" dur="0.88s" begin="-0.47s" repeatCount="indefinite"/><line x1="166" y1="0" x2="162.5" y2="9" stroke="#8FA8C4" stroke-width="1" stroke-linecap="round" opacity="0.35"/></g><g><animateTransform attributeName="transform" type="translate" values="0 -14;0 86" dur="0.92s" begin="-0.09s" repeatCount="indefinite"/><line x1="694" y1="0" x2="690.5" y2="9" stroke="#8FA8C4" stroke-width="1" stroke-linecap="round" opacity="0.35"/></g><g><animateTransform attributeName="transform" type="translate" values="0 -14;0 86" dur="0.95s" begin="-0.38s" repeatCount="indefinite"/><line x1="297" y1="0" x2="293.5" y2="9" stroke="#8FA8C4" stroke-width="1" stroke-linecap="round" opacity="0.35"/></g><g><animateTransform attributeName="transform" type="translate" values="0 -14;0 86" dur="1.17s" begin="-0.04s" repeatCount="indefinite"/><line x1="340" y1="0" x2="336.5" y2="9" stroke="#8FA8C4" stroke-width="1" stroke-linecap="round" opacity="0.35"/></g><g><animateTransform attributeName="transform" type="translate" values="0 -14;0 86" dur="0.82s" begin="-0.75s" repeatCount="indefinite"/><line x1="88" y1="0" x2="84.5" y2="9" stroke="#8FA8C4" stroke-width="1" stroke-linecap="round" opacity="0.35"/></g><g><animateTransform attributeName="transform" type="translate" values="0 -14;0 86" dur="1.15s" begin="-0.12s" repeatCount="indefinite"/><line x1="427" y1="0" x2="423.5" y2="9" stroke="#8FA8C4" stroke-width="1" stroke-linecap="round" opacity="0.35"/></g><g><animateTransform attributeName="transform" type="translate" values="0 -14;0 86" dur="1.04s" begin="-0.48s" repeatCount="indefinite"/><line x1="109" y1="0" x2="105.5" y2="9" stroke="#8FA8C4" stroke-width="1" stroke-linecap="round" opacity="0.35"/></g><g><animateTransform attributeName="transform" type="translate" values="0 -14;0 86" dur="0.86s" begin="-0.96s" repeatCount="indefinite"/><line x1="340" y1="0" x2="336.5" y2="9" stroke="#8FA8C4" stroke-width="1" stroke-linecap="round" opacity="0.35"/></g><g><animateTransform attributeName="transform" type="translate" values="0 -14;0 86" dur="1.13s" begin="-0.05s" repeatCount="indefinite"/><line x1="405" y1="0" x2="401.5" y2="9" stroke="#8FA8C4" stroke-width="1" stroke-linecap="round" opacity="0.35"/></g><g><animateTransform attributeName="transform" type="translate" values="0 -14;0 86" dur="0.83s" begin="-0.18s" repeatCount="indefinite"/><line x1="401" y1="0" x2="397.5" y2="9" stroke="#8FA8C4" stroke-width="1" stroke-linecap="round" opacity="0.35"/></g><g><animateTransform attributeName="transform" type="translate" values="0 -14;0 86" dur="0.81s" begin="-0.64s" repeatCount="indefinite"/><line x1="3" y1="0" x2="-0.5" y2="9" stroke="#8FA8C4" stroke-width="1" stroke-linecap="round" opacity="0.35"/></g><g><animateTransform attributeName="transform" type="translate" values="0 -14;0 86" dur="0.93s" begin="-0.96s" repeatCount="indefinite"/><line x1="731" y1="0" x2="727.5" y2="9" stroke="#8FA8C4" stroke-width="1" stroke-linecap="round" opacity="0.35"/></g><g><animateTransform attributeName="transform" type="translate" values="0 -14;0 86" dur="1.09s" begin="-0.02s" repeatCount="indefinite"/><line x1="878" y1="0" x2="874.5" y2="9" stroke="#8FA8C4" stroke-width="1" stroke-linecap="round" opacity="0.35"/></g><g><animateTransform attributeName="transform" type="translate" values="0 -14;0 86" dur="1.13s" begin="-0.66s" repeatCount="indefinite"/><line x1="428" y1="0" x2="424.5" y2="9" stroke="#8FA8C4" stroke-width="1" stroke-linecap="round" opacity="0.35"/></g><g><animateTransform attributeName="transform" type="translate" values="0 -14;0 86" dur="0.91s" begin="-0.34s" repeatCount="indefinite"/><line x1="760" y1="0" x2="756.5" y2="9" stroke="#8FA8C4" stroke-width="1" stroke-linecap="round" opacity="0.35"/></g><g><animateTransform attributeName="transform" type="translate" values="0 -14;0 86" dur="1.06s" begin="-0.84s" repeatCount="indefinite"/><line x1="476" y1="0" x2="472.5" y2="9" stroke="#8FA8C4" stroke-width="1" stroke-linecap="round" opacity="0.35"/></g><g><animateTransform attributeName="transform" type="translate" values="0 -14;0 86" dur="1.17s" begin="-0.09s" repeatCount="indefinite"/><line x1="108" y1="0" x2="104.5" y2="9" stroke="#8FA8C4" stroke-width="1" stroke-linecap="round" opacity="0.35"/></g><g><animateTransform attributeName="transform" type="translate" values="0 -14;0 86" dur="1.16s" begin="-0.34s" repeatCount="indefinite"/><line x1="635" y1="0" x2="631.5" y2="9" stroke="#8FA8C4" stroke-width="1" stroke-linecap="round" opacity="0.35"/></g><g><animateTransform attributeName="transform" type="translate" values="0 -14;0 86" dur="1.10s" begin="-1.05s" repeatCount="indefinite"/><line x1="664" y1="0" x2="660.5" y2="9" stroke="#8FA8C4" stroke-width="1" stroke-linecap="round" opacity="0.35"/></g><g><animateTransform attributeName="transform" type="translate" values="0 -14;0 86" dur="0.94s" begin="-1.14s" repeatCount="indefinite"/><line x1="79" y1="0" x2="75.5" y2="9" stroke="#8FA8C4" stroke-width="1" stroke-linecap="round" opacity="0.35"/></g><g><animateTransform attributeName="transform" type="translate" values="0 -14;0 86" dur="0.95s" begin="-0.59s" repeatCount="indefinite"/><line x1="363" y1="0" x2="359.5" y2="9" stroke="#8FA8C4" stroke-width="1" stroke-linecap="round" opacity="0.35"/></g><g><animateTransform attributeName="transform" type="translate" values="0 -20;0 92" dur="0.80s" begin="-0.55s" repeatCount="indefinite"/><line x1="29" y1="0" x2="23" y2="16" stroke="#8FA8C4" stroke-width="1.6" stroke-linecap="round" opacity="0.6"/></g><g><animateTransform attributeName="transform" type="translate" values="0 -20;0 92" dur="0.71s" begin="-0.78s" repeatCount="indefinite"/><line x1="891" y1="0" x2="885" y2="16" stroke="#8FA8C4" stroke-width="1.6" stroke-linecap="round" opacity="0.6"/></g><g><animateTransform attributeName="transform" type="translate" values="0 -20;0 92" dur="0.86s" begin="-1.00s" repeatCount="indefinite"/><line x1="414" y1="0" x2="408" y2="16" stroke="#8FA8C4" stroke-width="1.6" stroke-linecap="round" opacity="0.6"/></g><g><animateTransform attributeName="transform" type="translate" values="0 -20;0 92" dur="0.63s" begin="-0.84s" repeatCount="indefinite"/><line x1="306" y1="0" x2="300" y2="16" stroke="#8FA8C4" stroke-width="1.6" stroke-linecap="round" opacity="0.6"/></g><g><animateTransform attributeName="transform" type="translate" values="0 -20;0 92" dur="0.90s" begin="-0.65s" repeatCount="indefinite"/><line x1="557" y1="0" x2="551" y2="16" stroke="#8FA8C4" stroke-width="1.6" stroke-linecap="round" opacity="0.6"/></g><g><animateTransform attributeName="transform" type="translate" values="0 -20;0 92" dur="0.64s" begin="-0.18s" repeatCount="indefinite"/><line x1="765" y1="0" x2="759" y2="16" stroke="#8FA8C4" stroke-width="1.6" stroke-linecap="round" opacity="0.6"/></g><g><animateTransform attributeName="transform" type="translate" values="0 -20;0 92" dur="0.72s" begin="-0.93s" repeatCount="indefinite"/><line x1="93" y1="0" x2="87" y2="16" stroke="#8FA8C4" stroke-width="1.6" stroke-linecap="round" opacity="0.6"/></g><g><animateTransform attributeName="transform" type="translate" values="0 -20;0 92" dur="0.80s" begin="-0.19s" repeatCount="indefinite"/><line x1="190" y1="0" x2="184" y2="16" stroke="#8FA8C4" stroke-width="1.6" stroke-linecap="round" opacity="0.6"/></g><g><animateTransform attributeName="transform" type="translate" values="0 -20;0 92" dur="0.73s" begin="-0.94s" repeatCount="indefinite"/><line x1="447" y1="0" x2="441" y2="16" stroke="#8FA8C4" stroke-width="1.6" stroke-linecap="round" opacity="0.6"/></g><g><animateTransform attributeName="transform" type="translate" values="0 -20;0 92" dur="0.64s" begin="-0.29s" repeatCount="indefinite"/><line x1="493" y1="0" x2="487" y2="16" stroke="#8FA8C4" stroke-width="1.6" stroke-linecap="round" opacity="0.6"/></g><g><animateTransform attributeName="transform" type="translate" values="0 -20;0 92" dur="0.82s" begin="-0.61s" repeatCount="indefinite"/><line x1="815" y1="0" x2="809" y2="16" stroke="#8FA8C4" stroke-width="1.6" stroke-linecap="round" opacity="0.6"/></g><g><animateTransform attributeName="transform" type="translate" values="0 -20;0 92" dur="0.61s" begin="-0.37s" repeatCount="indefinite"/><line x1="150" y1="0" x2="144" y2="16" stroke="#8FA8C4" stroke-width="1.6" stroke-linecap="round" opacity="0.6"/></g><g><animateTransform attributeName="transform" type="translate" values="0 -20;0 92" dur="0.79s" begin="-0.52s" repeatCount="indefinite"/><line x1="884" y1="0" x2="878" y2="16" stroke="#8FA8C4" stroke-width="1.6" stroke-linecap="round" opacity="0.6"/></g><g><animateTransform attributeName="transform" type="translate" values="0 -20;0 92" dur="0.65s" begin="-0.89s" repeatCount="indefinite"/><line x1="80" y1="0" x2="74" y2="16" stroke="#8FA8C4" stroke-width="1.6" stroke-linecap="round" opacity="0.6"/></g><g><animateTransform attributeName="transform" type="translate" values="0 -20;0 92" dur="0.89s" begin="-0.02s" repeatCount="indefinite"/><line x1="157" y1="0" x2="151" y2="16" stroke="#8FA8C4" stroke-width="1.6" stroke-linecap="round" opacity="0.6"/></g><g><animateTransform attributeName="transform" type="translate" values="0 -20;0 92" dur="0.73s" begin="-0.69s" repeatCount="indefinite"/><line x1="407" y1="0" x2="401" y2="16" stroke="#8FA8C4" stroke-width="1.6" stroke-linecap="round" opacity="0.6"/></g><g><animateTransform attributeName="transform" type="translate" values="0 -20;0 92" dur="0.88s" begin="-0.78s" repeatCount="indefinite"/><line x1="600" y1="0" x2="594" y2="16" stroke="#8FA8C4" stroke-width="1.6" stroke-linecap="round" opacity="0.6"/></g><g><animateTransform attributeName="transform" type="translate" values="0 -20;0 92" dur="0.68s" begin="-0.90s" repeatCount="indefinite"/><line x1="214" y1="0" x2="208" y2="16" stroke="#8FA8C4" stroke-width="1.6" stroke-linecap="round" opacity="0.6"/></g><g><animateTransform attributeName="transform" type="translate" values="0 -20;0 92" dur="0.92s" begin="-0.46s" repeatCount="indefinite"/><line x1="175" y1="0" x2="169" y2="16" stroke="#8FA8C4" stroke-width="1.6" stroke-linecap="round" opacity="0.6"/></g><g><animateTransform attributeName="transform" type="translate" values="0 -20;0 92" dur="0.91s" begin="-0.26s" repeatCount="indefinite"/><line x1="484" y1="0" x2="478" y2="16" stroke="#8FA8C4" stroke-width="1.6" stroke-linecap="round" opacity="0.6"/></g><text x="893" y="64" text-anchor="end" font-size="9" letter-spacing="1.5" fill="#8b949e">LIVE SKY · RAIN · SUMMER</text></svg>
