<svg xmlns="http://www.w3.org/2000/svg" viewBox="0 0 900 330" width="900" height="330" font-family="Segoe UI, Ubuntu, Helvetica, Arial, sans-serif">
<title>yuki4266 - tech garden</title>
<defs><path id="vleaf" d="M0 0 Q-26 -8 -34 -30 Q-10 -24 0 0 Z"/></defs>
<path d="M40 12 C30 78 52 140 40 200 C30 258 48 296 40 326" stroke="#7FA36B" stroke-width="2.5" fill="none" stroke-linecap="round" stroke-dasharray="360" stroke-dashoffset="360" opacity="0.8"><animate attributeName="stroke-dashoffset" from="360" to="0" begin="0s" dur="1.6s" calcMode="spline" keyTimes="0;1" keySplines="0.3 0 0.3 1" fill="freeze"/></path>
<g transform="translate(46,88) scale(0.5,0.5)"><g opacity="0"><animate attributeName="opacity" from="0" to="1" begin="1.5s" dur="0.4s" fill="freeze"/><animateTransform attributeName="transform" type="scale" from="0" to="1" begin="1.5s" dur="0.55s" calcMode="spline" keyTimes="0;1" keySplines="0.2 0.8 0.3 1" fill="freeze"/><g><animateTransform attributeName="transform" type="rotate" values="-5;5;-5" keyTimes="0;0.5;1" calcMode="spline" keySplines="0.4 0 0.6 1;0.4 0 0.6 1" dur="5.5s" begin="2.1s" repeatCount="indefinite"/><use href="#vleaf" fill="#8CB07A" opacity="0.85"/></g></g></g>
<g transform="translate(34,152) scale(-0.45,0.45)"><g opacity="0"><animate attributeName="opacity" from="0" to="1" begin="1.75s" dur="0.4s" fill="freeze"/><animateTransform attributeName="transform" type="scale" from="0" to="1" begin="1.75s" dur="0.55s" calcMode="spline" keyTimes="0;1" keySplines="0.2 0.8 0.3 1" fill="freeze"/><g><animateTransform attributeName="transform" type="rotate" values="-5;5;-5" keyTimes="0;0.5;1" calcMode="spline" keySplines="0.4 0 0.6 1;0.4 0 0.6 1" dur="6.5s" begin="2.35s" repeatCount="indefinite"/><use href="#vleaf" fill="#8CB07A" opacity="0.85"/></g></g></g>
<g transform="translate(46,258) scale(0.5,0.5)"><g opacity="0"><animate attributeName="opacity" from="0" to="1" begin="2.0s" dur="0.4s" fill="freeze"/><animateTransform attributeName="transform" type="scale" from="0" to="1" begin="2.0s" dur="0.55s" calcMode="spline" keyTimes="0;1" keySplines="0.2 0.8 0.3 1" fill="freeze"/><g><animateTransform attributeName="transform" type="rotate" values="-5;5;-5" keyTimes="0;0.5;1" calcMode="spline" keySplines="0.4 0 0.6 1;0.4 0 0.6 1" dur="6.0s" begin="2.6s" repeatCount="indefinite"/><use href="#vleaf" fill="#8CB07A" opacity="0.85"/></g></g></g>
<g transform="translate(52,50)"><g opacity="0"><animate attributeName="opacity" from="0" to="1" begin="0.25s" dur="0.4s" fill="freeze"/><animateTransform attributeName="transform" type="scale" from="0" to="1" begin="0.25s" dur="0.5s" calcMode="spline" keyTimes="0;1" keySplines="0.2 0.8 0.3 1" fill="freeze"/><g><animateTransform attributeName="transform" type="rotate" from="0" to="360" begin="1s" dur="16.0s" repeatCount="indefinite"/><circle cx="0" cy="-6.5" r="3.4" fill="#E2542F"/><circle cx="6.2" cy="-2" r="3.4" fill="#E2542F"/><circle cx="3.8" cy="5.3" r="3.4" fill="#E2542F"/><circle cx="-3.8" cy="5.3" r="3.4" fill="#E2542F"/><circle cx="-6.2" cy="-2" r="3.4" fill="#E2542F"/></g><circle r="2.8" fill="#E2542F"/></g></g>
<text x="70" y="54" font-size="11" letter-spacing="1.5" fill="#8b949e" opacity="0">LLMS<animate attributeName="opacity" from="0" to="1" begin="0.3s" dur="0.5s" fill="freeze"/></text>
<g opacity="0"><animate attributeName="opacity" from="0" to="1" begin="0.5s" dur="0.45s" fill="freeze"/><animateTransform attributeName="transform" type="translate" from="0 8" to="0 0" begin="0.5s" dur="0.45s" calcMode="spline" keyTimes="0;1" keySplines="0.2 0.8 0.3 1" fill="freeze"/><g><animateTransform attributeName="transform" type="translate" values="0 0;0 -2.4;0 0" keyTimes="0;0.5;1" calcMode="spline" keySplines="0.4 0 0.6 1;0.4 0 0.6 1" dur="3.6s" begin="2.5s" repeatCount="indefinite"/><rect x="195" y="39" width="85" height="22" rx="11" fill="#E2542F" fill-opacity="0.07" stroke="#E2542F" stroke-width="1.3"/><g transform="translate(206,43) scale(0.5833)"><path d="m4.7144 15.9555 4.7174-2.6471.079-.2307-.079-.1275h-.2307l-.7893-.0486-2.6956-.0729-2.3375-.0971-2.2646-.1214-.5707-.1215-.5343-.7042.0546-.3522.4797-.3218.686.0608 1.5179.1032 2.2767.1578 1.6514.0972 2.4468.255h.3886l.0546-.1579-.1336-.0971-.1032-.0972L6.973 9.8356l-2.55-1.6879-1.3356-.9714-.7225-.4918-.3643-.4614-.1578-1.0078.6557-.7225.8803.0607.2246.0607.8925.686 1.9064 1.4754 2.4893 1.8336.3643.3035.1457-.1032.0182-.0728-.164-.2733-1.3539-2.4467-1.445-2.4893-.6435-1.032-.17-.6194c-.0607-.255-.1032-.4674-.1032-.7285L6.287.1335 6.6997 0l.9957.1336.419.3642.6192 1.4147 1.0018 2.2282 1.5543 3.0296.4553.8985.2429.8318.091.255h.1579v-.1457l.1275-1.706.2368-2.0947.2307-2.6957.0789-.7589.3764-.9107.7468-.4918.5828.2793.4797.686-.0668.4433-.2853 1.8517-.5586 2.9021-.3643 1.9429h.2125l.2429-.2429.9835-1.3053 1.6514-2.0643.7286-.8196.85-.9046.5464-.4311h1.0321l.759 1.1293-.34 1.1657-1.0625 1.3478-.8804 1.1414-1.2628 1.7-.7893 1.36.0729.1093.1882-.0183 2.8535-.607 1.5421-.2794 1.8396-.3157.8318.3886.091.3946-.3278.8075-1.967.4857-2.3072.4614-3.4364.8136-.0425.0304.0486.0607 1.5482.1457.6618.0364h1.621l3.0175.2247.7892.522.4736.6376-.079.4857-1.2142.6193-1.6393-.3886-3.825-.9107-1.3113-.3279h-.1822v.1093l1.0929 1.0686 2.0035 1.8092 2.5075 2.3314.1275.5768-.3218.4554-.34-.0486-2.2039-1.6575-.85-.7468-1.9246-1.621h-.1275v.17l.4432.6496 2.3436 3.5214.1214 1.0807-.17.3521-.6071.2125-.6679-.1214-1.3721-1.9246L14.38 17.959l-1.1414-1.9428-.1397.079-.674 7.2552-.3156.3703-.7286.2793-.6071-.4614-.3218-.7468.3218-1.4753.3886-1.9246.3157-1.53.2853-1.9004.17-.6314-.0121-.0425-.1397.0182-1.4328 1.9672-2.1796 2.9446-1.7243 1.8456-.4128.164-.7164-.3704.0667-.6618.4008-.5889 2.386-3.0357 1.4389-1.882.929-1.0868-.0062-.1579h-.0546l-6.3385 4.1164-1.1293.1457-.4857-.4554.0608-.7467.2307-.2429 1.9064-1.3114Z" fill="#E2542F"/></g><text x="226" y="54" font-size="12" font-weight="600" fill="#E2542F">Claude</text></g></g>
<g opacity="0"><animate attributeName="opacity" from="0" to="1" begin="0.5700000000000001s" dur="0.45s" fill="freeze"/><animateTransform attributeName="transform" type="translate" from="0 8" to="0 0" begin="0.5700000000000001s" dur="0.45s" calcMode="spline" keyTimes="0;1" keySplines="0.2 0.8 0.3 1" fill="freeze"/><g><animateTransform attributeName="transform" type="translate" values="0 0;0 -2.4;0 0" keyTimes="0;0.5;1" calcMode="spline" keySplines="0.4 0 0.6 1;0.4 0 0.6 1" dur="4.5s" begin="2.9s" repeatCount="indefinite"/><rect x="290" y="39" width="85" height="22" rx="11" fill="#F4795B" fill-opacity="0.07" stroke="#F4795B" stroke-width="1.3"/><g transform="translate(301,43) scale(0.5833)"><path d="M11.04 19.32Q12 21.51 12 24q0-2.49.93-4.68.96-2.19 2.58-3.81t3.81-2.55Q21.51 12 24 12q-2.49 0-4.68-.93a12.3 12.3 0 0 1-3.81-2.58 12.3 12.3 0 0 1-2.58-3.81Q12 2.49 12 0q0 2.49-.96 4.68-.93 2.19-2.55 3.81a12.3 12.3 0 0 1-3.81 2.58Q2.49 12 0 12q2.49 0 4.68.96 2.19.93 3.81 2.55t2.55 3.81" fill="#F4795B"/></g><text x="321" y="54" font-size="12" font-weight="600" fill="#F4795B">Gemini</text></g></g>
<g opacity="0"><animate attributeName="opacity" from="0" to="1" begin="0.64s" dur="0.45s" fill="freeze"/><animateTransform attributeName="transform" type="translate" from="0 8" to="0 0" begin="0.64s" dur="0.45s" calcMode="spline" keyTimes="0;1" keySplines="0.2 0.8 0.3 1" fill="freeze"/><g><animateTransform attributeName="transform" type="translate" values="0 0;0 -2.4;0 0" keyTimes="0;0.5;1" calcMode="spline" keySplines="0.4 0 0.6 1;0.4 0 0.6 1" dur="3.9s" begin="3.3s" repeatCount="indefinite"/><rect x="385" y="39" width="100" height="22" rx="11" fill="#ED8B66" fill-opacity="0.07" stroke="#ED8B66" stroke-width="1.3"/><g transform="translate(396,43) scale(0.5833)"><path d="M23.748 4.651c-.254-.124-.364.113-.512.233-.051.04-.094.09-.137.137-.372.397-.806.657-1.373.626-.829-.046-1.537.214-2.163.848-.133-.782-.575-1.248-1.247-1.548-.352-.155-.708-.311-.955-.65-.172-.24-.219-.509-.305-.774-.055-.16-.11-.323-.293-.35-.2-.031-.278.136-.356.276-.313.572-.434 1.202-.422 1.84.027 1.436.633 2.58 1.838 3.393.137.094.172.187.129.323-.082.28-.18.553-.266.833-.055.179-.137.218-.328.14a5.5 5.5 0 0 1-1.737-1.179c-.857-.828-1.631-1.743-2.597-2.46a12 12 0 0 0-.689-.47c-.985-.957.13-1.743.387-1.836.27-.098.094-.433-.778-.428-.872.003-1.67.295-2.687.685a3 3 0 0 1-.465.136 9.6 9.6 0 0 0-2.883-.101c-1.885.21-3.39 1.1-4.497 2.622C.082 8.776-.231 10.854.152 13.02c.403 2.284 1.568 4.175 3.36 5.653 1.857 1.533 3.997 2.284 6.438 2.14 1.482-.085 3.132-.284 4.994-1.86.47.234.962.328 1.78.398.629.058 1.235-.031 1.705-.129.735-.155.684-.836.418-.961-2.155-1.004-1.682-.595-2.112-.926 1.095-1.295 2.768-3.598 3.284-6.733.05-.346.115-.834.108-1.114-.004-.171.035-.238.23-.257a4.2 4.2 0 0 0 1.545-.475c1.397-.763 1.96-2.016 2.093-3.517.02-.23-.004-.467-.247-.588M11.58 18.168c-2.088-1.642-3.101-2.183-3.52-2.16-.39.024-.32.472-.234.763.09.288.207.487.371.74.114.167.192.416-.113.603-.673.416-1.842-.14-1.897-.168-1.361-.801-2.5-1.86-3.301-3.306-.775-1.393-1.225-2.888-1.299-4.482-.02-.385.094-.522.477-.592a4.7 4.7 0 0 1 1.53-.038c2.131.311 3.946 1.264 5.467 2.774.868.86 1.525 1.887 2.202 2.89.72 1.066 1.494 2.082 2.48 2.915.348.291.626.513.892.677-.802.09-2.14.109-3.055-.615zm1.001-6.44a.306.306 0 0 1 .415-.287.3.3 0 0 1 .113.074.3.3 0 0 1 .086.214c0 .17-.136.307-.308.307a.303.303 0 0 1-.306-.307m3.11 1.596c-.2.081-.4.151-.591.16a1.25 1.25 0 0 1-.798-.254c-.274-.23-.47-.358-.551-.758a1.7 1.7 0 0 1 .015-.588c.07-.327-.007-.537-.238-.727-.188-.156-.426-.199-.689-.199a.6.6 0 0 1-.254-.078.253.253 0 0 1-.114-.358 1 1 0 0 1 .192-.21c.356-.202.767-.136 1.146.016.352.144.618.408 1.001.782.392.451.462.576.685.915.176.264.336.536.446.848.066.194-.02.353-.25.45" fill="#ED8B66"/></g><text x="416" y="54" font-size="12" font-weight="600" fill="#ED8B66">DeepSeek</text></g></g>
<g opacity="0"><animate attributeName="opacity" from="0" to="1" begin="0.71s" dur="0.45s" fill="freeze"/><animateTransform attributeName="transform" type="translate" from="0 8" to="0 0" begin="0.71s" dur="0.45s" calcMode="spline" keyTimes="0;1" keySplines="0.2 0.8 0.3 1" fill="freeze"/><g><animateTransform attributeName="transform" type="translate" values="0 0;0 -2.4;0 0" keyTimes="0;0.5;1" calcMode="spline" keySplines="0.4 0 0.6 1;0.4 0 0.6 1" dur="4.8s" begin="3.7s" repeatCount="indefinite"/><rect x="495" y="39" width="71" height="22" rx="11" fill="#7FA36B" fill-opacity="0.07" stroke="#7FA36B" stroke-width="1.3"/><g transform="translate(506,43) scale(0.5833)"><path d="M23.919 14.545 20.817 9.17l1.47-2.544a.56.56 0 0 0 0-.566l-1.633-2.83a.57.57 0 0 0-.49-.283h-6.207L12.487.402a.57.57 0 0 0-.49-.284H8.732a.56.56 0 0 0-.49.284L5.139 5.775h-2.94a.56.56 0 0 0-.49.284L.077 8.887a.56.56 0 0 0 0 .567L3.18 14.83l-1.47 2.545a.56.56 0 0 0 0 .566l1.634 2.83a.57.57 0 0 0 .49.283h6.205l1.47 2.545a.57.57 0 0 0 .49.284h3.266a.57.57 0 0 0 .49-.284l3.104-5.375h2.94a.57.57 0 0 0 .49-.283l1.634-2.828a.55.55 0 0 0-.004-.568M8.733.686l1.634 2.828-1.634 2.828H21.8L20.164 9.17H7.425L5.63 6.06Zm1.306 19.801-6.205-.002 1.634-2.83h3.265L2.201 6.344h3.267q3.182 5.517 6.367 11.032zm10.124-5.66L18.53 12l-6.532 11.315-1.634-2.83c2.129-3.673 4.25-7.351 6.373-11.028h3.592l3.102 5.374z" fill="#7FA36B"/></g><text x="526" y="54" font-size="12" font-weight="600" fill="#7FA36B">Qwen</text></g></g>
<g opacity="0"><animate attributeName="opacity" from="0" to="1" begin="0.78s" dur="0.45s" fill="freeze"/><animateTransform attributeName="transform" type="translate" from="0 8" to="0 0" begin="0.78s" dur="0.45s" calcMode="spline" keyTimes="0;1" keySplines="0.2 0.8 0.3 1" fill="freeze"/><g><animateTransform attributeName="transform" type="translate" values="0 0;0 -2.4;0 0" keyTimes="0;0.5;1" calcMode="spline" keySplines="0.4 0 0.6 1;0.4 0 0.6 1" dur="4.2s" begin="4.1s" repeatCount="indefinite"/><rect x="576" y="39" width="78" height="22" rx="11" fill="#E2542F" fill-opacity="0.07" stroke="#E2542F" stroke-width="1.3"/><g transform="translate(587,43) scale(0.5833)"><path d="M6.915 4.03c-1.968 0-3.683 1.28-4.871 3.113C.704 9.208 0 11.883 0 14.449c0 .706.07 1.369.21 1.973a6.624 6.624 0 0 0 .265.86 5.297 5.297 0 0 0 .371.761c.696 1.159 1.818 1.927 3.593 1.927 1.497 0 2.633-.671 3.965-2.444.76-1.012 1.144-1.626 2.663-4.32l.756-1.339.186-.325c.061.1.121.196.183.3l2.152 3.595c.724 1.21 1.665 2.556 2.47 3.314 1.046.987 1.992 1.22 3.06 1.22 1.075 0 1.876-.355 2.455-.843a3.743 3.743 0 0 0 .81-.973c.542-.939.861-2.127.861-3.745 0-2.72-.681-5.357-2.084-7.45-1.282-1.912-2.957-2.93-4.716-2.93-1.047 0-2.088.467-3.053 1.308-.652.57-1.257 1.29-1.82 2.05-.69-.875-1.335-1.547-1.958-2.056-1.182-.966-2.315-1.303-3.454-1.303zm10.16 2.053c1.147 0 2.188.758 2.992 1.999 1.132 1.748 1.647 4.195 1.647 6.4 0 1.548-.368 2.9-1.839 2.9-.58 0-1.027-.23-1.664-1.004-.496-.601-1.343-1.878-2.832-4.358l-.617-1.028a44.908 44.908 0 0 0-1.255-1.98c.07-.109.141-.224.211-.327 1.12-1.667 2.118-2.602 3.358-2.602zm-10.201.553c1.265 0 2.058.791 2.675 1.446.307.327.737.871 1.234 1.579l-1.02 1.566c-.757 1.163-1.882 3.017-2.837 4.338-1.191 1.649-1.81 1.817-2.486 1.817-.524 0-1.038-.237-1.383-.794-.263-.426-.464-1.13-.464-2.046 0-2.221.63-4.535 1.66-6.088.454-.687.964-1.226 1.533-1.533a2.264 2.264 0 0 1 1.088-.285z" fill="#E2542F"/></g><text x="607" y="54" font-size="12" font-weight="600" fill="#E2542F">Llama</text></g></g>
<g opacity="0"><animate attributeName="opacity" from="0" to="1" begin="0.8500000000000001s" dur="0.45s" fill="freeze"/><animateTransform attributeName="transform" type="translate" from="0 8" to="0 0" begin="0.8500000000000001s" dur="0.45s" calcMode="spline" keyTimes="0;1" keySplines="0.2 0.8 0.3 1" fill="freeze"/><g><animateTransform attributeName="transform" type="translate" values="0 0;0 -2.4;0 0" keyTimes="0;0.5;1" calcMode="spline" keySplines="0.4 0 0.6 1;0.4 0 0.6 1" dur="3.6s" begin="4.5s" repeatCount="indefinite"/><rect x="664" y="39" width="92" height="22" rx="11" fill="#F4795B" fill-opacity="0.07" stroke="#F4795B" stroke-width="1.3"/><g transform="translate(675,43) scale(0.5833)"><path d="M17.143 3.429v3.428h-3.429v3.429h-3.428V6.857H6.857V3.43H3.43v13.714H0v3.428h10.286v-3.428H6.857v-3.429h3.429v3.429h3.429v-3.429h3.428v3.429h-3.428v3.428H24v-3.428h-3.43V3.429z" fill="#F4795B"/></g><text x="695" y="54" font-size="12" font-weight="600" fill="#F4795B">Mistral</text></g></g>
<g transform="translate(52,112)"><g opacity="0"><animate attributeName="opacity" from="0" to="1" begin="0.53s" dur="0.4s" fill="freeze"/><animateTransform attributeName="transform" type="scale" from="0" to="1" begin="0.53s" dur="0.5s" calcMode="spline" keyTimes="0;1" keySplines="0.2 0.8 0.3 1" fill="freeze"/><g><animateTransform attributeName="transform" type="rotate" from="0" to="-360" begin="1s" dur="17.5s" repeatCount="indefinite"/><circle cx="0" cy="-6.5" r="3.4" fill="#7FA36B"/><circle cx="6.2" cy="-2" r="3.4" fill="#7FA36B"/><circle cx="3.8" cy="5.3" r="3.4" fill="#7FA36B"/><circle cx="-3.8" cy="5.3" r="3.4" fill="#7FA36B"/><circle cx="-6.2" cy="-2" r="3.4" fill="#7FA36B"/></g><circle r="2.8" fill="#E2542F"/></g></g>
<text x="70" y="116" font-size="11" letter-spacing="1.5" fill="#8b949e" opacity="0">AGENTS<animate attributeName="opacity" from="0" to="1" begin="0.5800000000000001s" dur="0.5s" fill="freeze"/></text>
<g opacity="0"><animate attributeName="opacity" from="0" to="1" begin="0.78s" dur="0.45s" fill="freeze"/><animateTransform attributeName="transform" type="translate" from="0 8" to="0 0" begin="0.78s" dur="0.45s" calcMode="spline" keyTimes="0;1" keySplines="0.2 0.8 0.3 1" fill="freeze"/><g><animateTransform attributeName="transform" type="translate" values="0 0;0 -2.4;0 0" keyTimes="0;0.5;1" calcMode="spline" keySplines="0.4 0 0.6 1;0.4 0 0.6 1" dur="4.2s" begin="2.7s" repeatCount="indefinite"/><rect x="195" y="101" width="107" height="22" rx="11" fill="#E2542F" fill-opacity="0.07" stroke="#E2542F" stroke-width="1.3"/><g transform="translate(206,105) scale(0.5833)"><path d="M5 19H10A5 5 0 115 14ZM19 14A5 5 0 1114 19H19ZM10 5A5 5 0 105 10V5ZM19 5V10A5 5 0 1014 5Z" fill="#E2542F"/></g><text x="226" y="116" font-size="12" font-weight="600" fill="#E2542F">LangGraph</text></g></g>
<g opacity="0"><animate attributeName="opacity" from="0" to="1" begin="0.8500000000000001s" dur="0.45s" fill="freeze"/><animateTransform attributeName="transform" type="translate" from="0 8" to="0 0" begin="0.8500000000000001s" dur="0.45s" calcMode="spline" keyTimes="0;1" keySplines="0.2 0.8 0.3 1" fill="freeze"/><g><animateTransform attributeName="transform" type="translate" values="0 0;0 -2.4;0 0" keyTimes="0;0.5;1" calcMode="spline" keySplines="0.4 0 0.6 1;0.4 0 0.6 1" dur="3.6s" begin="3.1s" repeatCount="indefinite"/><rect x="312" y="101" width="107" height="22" rx="11" fill="#F4795B" fill-opacity="0.07" stroke="#F4795B" stroke-width="1.3"/><g transform="translate(323,105) scale(0.5833)"><path d="M13.796 0a6.93 6.93 0 0 0-4.91 2.019L5.451 5.455l3.273 3.27 3.432-3.432a2.284 2.284 0 0 1 3.277 0 2.28 2.28 0 0 1 0 3.275L12 12.001l3.273 3.273 3.433-3.435c2.692-2.692 2.692-7.127 0-9.82A6.92 6.92 0 0 0 13.796 0m-5.07 8.728-3.433 3.434c-2.692 2.693-2.692 7.126 0 9.819A6.92 6.92 0 0 0 10.203 24a6.93 6.93 0 0 0 4.911-2.02l3.432-3.432-3.271-3.272-3.433 3.433a2.284 2.284 0 0 1-3.277 0 2.28 2.28 0 0 1 0-3.276L12 12z" fill="#F4795B"/></g><text x="343" y="116" font-size="12" font-weight="600" fill="#F4795B">LangChain</text></g></g>
<g opacity="0"><animate attributeName="opacity" from="0" to="1" begin="0.92s" dur="0.45s" fill="freeze"/><animateTransform attributeName="transform" type="translate" from="0 8" to="0 0" begin="0.92s" dur="0.45s" calcMode="spline" keyTimes="0;1" keySplines="0.2 0.8 0.3 1" fill="freeze"/><g><animateTransform attributeName="transform" type="translate" values="0 0;0 -2.4;0 0" keyTimes="0;0.5;1" calcMode="spline" keySplines="0.4 0 0.6 1;0.4 0 0.6 1" dur="4.5s" begin="3.5s" repeatCount="indefinite"/><rect x="429" y="101" width="96" height="22" rx="11" fill="#ED8B66" fill-opacity="0.07" stroke="#ED8B66" stroke-width="1.3"/><text x="477" y="116" text-anchor="middle" font-size="12" font-weight="600" fill="#ED8B66">LlamaIndex</text></g></g>
<g opacity="0"><animate attributeName="opacity" from="0" to="1" begin="0.99s" dur="0.45s" fill="freeze"/><animateTransform attributeName="transform" type="translate" from="0 8" to="0 0" begin="0.99s" dur="0.45s" calcMode="spline" keyTimes="0;1" keySplines="0.2 0.8 0.3 1" fill="freeze"/><g><animateTransform attributeName="transform" type="translate" values="0 0;0 -2.4;0 0" keyTimes="0;0.5;1" calcMode="spline" keySplines="0.4 0 0.6 1;0.4 0 0.6 1" dur="3.9s" begin="3.9s" repeatCount="indefinite"/><rect x="535" y="101" width="85" height="22" rx="11" fill="#7FA36B" fill-opacity="0.07" stroke="#7FA36B" stroke-width="1.3"/><g transform="translate(546,105) scale(0.5833)"><path d="M12.482.18C7.161 1.319 1.478 9.069 1.426 15.372c-.051 5.527 3.1 8.68 8.68 8.627 6.716-.05 14.259-6.87 12.09-10.9-.672-1.292-1.396-1.344-2.687-.207-1.602 1.395-1.654.31-.207-2.893 1.757-3.98 1.705-5.322-.31-7.544C17.03.388 14.962-.388 12.482.181Zm5.322 2.068c2.273 2.015 2.376 4.236.465 8.42-1.395 3.1-2.17 3.515-3.824 1.86-1.24-1.24-1.343-3.46-.258-6.044 1.137-2.635.982-3.1-.568-1.653-3.72 3.358-6.458 9.765-5.424 12.503.464 1.189.825 1.395 2.737 1.395 2.79 0 6.303-1.705 7.957-3.926 1.756-2.274 2.79-2.274 2.79-.052 0 3.875-6.459 8.627-11.625 8.627-6.251 0-9.351-4.752-7.491-11.47.878-2.995 4.443-7.904 7.077-9.66 3.255-2.17 5.684-2.17 8.164 0z" fill="#7FA36B"/></g><text x="566" y="116" font-size="12" font-weight="600" fill="#7FA36B">CrewAI</text></g></g>
<g opacity="0"><animate attributeName="opacity" from="0" to="1" begin="1.06s" dur="0.45s" fill="freeze"/><animateTransform attributeName="transform" type="translate" from="0 8" to="0 0" begin="1.06s" dur="0.45s" calcMode="spline" keyTimes="0;1" keySplines="0.2 0.8 0.3 1" fill="freeze"/><g><animateTransform attributeName="transform" type="translate" values="0 0;0 -2.4;0 0" keyTimes="0;0.5;1" calcMode="spline" keySplines="0.4 0 0.6 1;0.4 0 0.6 1" dur="4.8s" begin="4.3s" repeatCount="indefinite"/><rect x="630" y="101" width="64" height="22" rx="11" fill="#E2542F" fill-opacity="0.07" stroke="#E2542F" stroke-width="1.3"/><g transform="translate(641,105) scale(0.5833)"><path d="M13.85 0a4.16 4.16 0 0 0-2.95 1.217L1.456 10.66a.835.835 0 0 0 0 1.18.835.835 0 0 0 1.18 0l9.442-9.442a2.49 2.49 0 0 1 3.541 0 2.49 2.49 0 0 1 0 3.541L8.59 12.97l-.1.1a.835.835 0 0 0 0 1.18.835.835 0 0 0 1.18 0l.1-.098 7.03-7.034a2.49 2.49 0 0 1 3.542 0l.049.05a2.49 2.49 0 0 1 0 3.54l-8.54 8.54a1.96 1.96 0 0 0 0 2.755l1.753 1.753a.835.835 0 0 0 1.18 0 .835.835 0 0 0 0-1.18l-1.753-1.753a.266.266 0 0 1 0-.394l8.54-8.54a4.185 4.185 0 0 0 0-5.9l-.05-.05a4.16 4.16 0 0 0-2.95-1.218c-.2 0-.401.02-.6.048a4.17 4.17 0 0 0-1.17-3.552A4.16 4.16 0 0 0 13.85 0m0 3.333a.84.84 0 0 0-.59.245L6.275 10.56a4.186 4.186 0 0 0 0 5.902 4.186 4.186 0 0 0 5.902 0L19.16 9.48a.835.835 0 0 0 0-1.18.835.835 0 0 0-1.18 0l-6.985 6.984a2.49 2.49 0 0 1-3.54 0 2.49 2.49 0 0 1 0-3.54l6.983-6.985a.835.835 0 0 0 0-1.18.84.84 0 0 0-.59-.245" fill="#E2542F"/></g><text x="661" y="116" font-size="12" font-weight="600" fill="#E2542F">MCP</text></g></g>
<g opacity="0"><animate attributeName="opacity" from="0" to="1" begin="1.1300000000000001s" dur="0.45s" fill="freeze"/><animateTransform attributeName="transform" type="translate" from="0 8" to="0 0" begin="1.1300000000000001s" dur="0.45s" calcMode="spline" keyTimes="0;1" keySplines="0.2 0.8 0.3 1" fill="freeze"/><g><animateTransform attributeName="transform" type="translate" values="0 0;0 -2.4;0 0" keyTimes="0;0.5;1" calcMode="spline" keySplines="0.4 0 0.6 1;0.4 0 0.6 1" dur="4.2s" begin="4.7s" repeatCount="indefinite"/><rect x="704" y="101" width="71" height="22" rx="11" fill="#F4795B" fill-opacity="0.07" stroke="#F4795B" stroke-width="1.3"/><g transform="translate(715,105) scale(0.5833)"><path d="m22.417 9.334-1.333 4.333-1.334-4.333h-1.583L20.1 14.94c.2.583-.14 1.06-.756 1.06h-.678v1.334h.996c.869 0 1.65-.55 1.945-1.367L24 9.334ZM2.833 6.667H0v8.666h2.833c3.5 0 4.5-2 4.5-4.333s-1-4.334-4.5-4.334zM2.866 14H1.6V8h1.266c2.013 0 2.867.988 2.867 3s-.854 3-2.867 3m11-5.267v.6h-1.532v1.334h1.533V14h-2.534V9.334H8v1.334h1.867V14h-2.2v1.334h10V14h-2.332v-3.333h2.333V9.334h-2.333V8h2.333V6.667h-1.733a2.07 2.07 0 0 0-2.067 2.067Zm-3.266-.2c.681 0 .933-.417.933-.933 0-.515-.252-.933-.933-.933-.68 0-.934.418-.934.933s.253.934.934.934" fill="#F4795B"/></g><text x="735" y="116" font-size="12" font-weight="600" fill="#F4795B">Dify</text></g></g>
<g opacity="0"><animate attributeName="opacity" from="0" to="1" begin="1.2000000000000002s" dur="0.45s" fill="freeze"/><animateTransform attributeName="transform" type="translate" from="0 8" to="0 0" begin="1.2000000000000002s" dur="0.45s" calcMode="spline" keyTimes="0;1" keySplines="0.2 0.8 0.3 1" fill="freeze"/><g><animateTransform attributeName="transform" type="translate" values="0 0;0 -2.4;0 0" keyTimes="0;0.5;1" calcMode="spline" keySplines="0.4 0 0.6 1;0.4 0 0.6 1" dur="3.6s" begin="5.1s" repeatCount="indefinite"/><rect x="785" y="101" width="64" height="22" rx="11" fill="#ED8B66" fill-opacity="0.07" stroke="#ED8B66" stroke-width="1.3"/><g transform="translate(796,105) scale(0.5833)"><path d="M21.4737 5.6842c-1.1772 0-2.1663.8051-2.4468 1.8947h-2.8955c-1.235 0-2.289.893-2.492 2.111l-.1038.623a1.263 1.263 0 0 1-1.246 1.0555H11.289c-.2805-1.0896-1.2696-1.8947-2.4468-1.8947s-2.1663.8051-2.4467 1.8947H4.973c-.2805-1.0896-1.2696-1.8947-2.4468-1.8947C1.1311 9.4737 0 10.6047 0 12s1.131 2.5263 2.5263 2.5263c1.1772 0 2.1663-.8051 2.4468-1.8947h1.4223c.2804 1.0896 1.2696 1.8947 2.4467 1.8947 1.1772 0 2.1663-.8051 2.4468-1.8947h1.0008a1.263 1.263 0 0 1 1.2459 1.0555l.1038.623c.203 1.218 1.257 2.111 2.492 2.111h.3692c.2804 1.0895 1.2696 1.8947 2.4468 1.8947 1.3952 0 2.5263-1.131 2.5263-2.5263s-1.131-2.5263-2.5263-2.5263c-1.1772 0-2.1664.805-2.4468 1.8947h-.3692a1.263 1.263 0 0 1-1.246-1.0555l-.1037-.623A2.52 2.52 0 0 0 13.9607 12a2.52 2.52 0 0 0 .821-1.4794l.1038-.623a1.263 1.263 0 0 1 1.2459-1.0555h2.8955c.2805 1.0896 1.2696 1.8947 2.4468 1.8947 1.3952 0 2.5263-1.131 2.5263-2.5263s-1.131-2.5263-2.5263-2.5263m0 1.2632a1.263 1.263 0 0 1 1.2631 1.2631 1.263 1.263 0 0 1-1.2631 1.2632 1.263 1.263 0 0 1-1.2632-1.2632 1.263 1.263 0 0 1 1.2632-1.2631M2.5263 10.7368A1.263 1.263 0 0 1 3.7895 12a1.263 1.263 0 0 1-1.2632 1.2632A1.263 1.263 0 0 1 1.2632 12a1.263 1.263 0 0 1 1.2631-1.2632m6.3158 0A1.263 1.263 0 0 1 10.1053 12a1.263 1.263 0 0 1-1.2632 1.2632A1.263 1.263 0 0 1 7.579 12a1.263 1.263 0 0 1 1.2632-1.2632m10.1053 3.7895a1.263 1.263 0 0 1 1.2631 1.2632 1.263 1.263 0 0 1-1.2631 1.2631 1.263 1.263 0 0 1-1.2632-1.2631 1.263 1.263 0 0 1 1.2632-1.2632" fill="#ED8B66"/></g><text x="816" y="116" font-size="12" font-weight="600" fill="#ED8B66">n8n</text></g></g>
<g transform="translate(52,174)"><g opacity="0"><animate attributeName="opacity" from="0" to="1" begin="0.81s" dur="0.4s" fill="freeze"/><animateTransform attributeName="transform" type="scale" from="0" to="1" begin="0.81s" dur="0.5s" calcMode="spline" keyTimes="0;1" keySplines="0.2 0.8 0.3 1" fill="freeze"/><g><animateTransform attributeName="transform" type="rotate" from="0" to="360" begin="1s" dur="19.0s" repeatCount="indefinite"/><circle cx="0" cy="-6.5" r="3.4" fill="#F4795B"/><circle cx="6.2" cy="-2" r="3.4" fill="#F4795B"/><circle cx="3.8" cy="5.3" r="3.4" fill="#F4795B"/><circle cx="-3.8" cy="5.3" r="3.4" fill="#F4795B"/><circle cx="-6.2" cy="-2" r="3.4" fill="#F4795B"/></g><circle r="2.8" fill="#E2542F"/></g></g>
<text x="70" y="178" font-size="11" letter-spacing="1.5" fill="#8b949e" opacity="0">INFERENCE<animate attributeName="opacity" from="0" to="1" begin="0.8600000000000001s" dur="0.5s" fill="freeze"/></text>
<g opacity="0"><animate attributeName="opacity" from="0" to="1" begin="1.06s" dur="0.45s" fill="freeze"/><animateTransform attributeName="transform" type="translate" from="0 8" to="0 0" begin="1.06s" dur="0.45s" calcMode="spline" keyTimes="0;1" keySplines="0.2 0.8 0.3 1" fill="freeze"/><g><animateTransform attributeName="transform" type="translate" values="0 0;0 -2.4;0 0" keyTimes="0;0.5;1" calcMode="spline" keySplines="0.4 0 0.6 1;0.4 0 0.6 1" dur="4.8s" begin="2.9s" repeatCount="indefinite"/><rect x="195" y="163" width="85" height="22" rx="11" fill="#E2542F" fill-opacity="0.07" stroke="#E2542F" stroke-width="1.3"/><g transform="translate(206,167) scale(0.5833)"><path d="M16.361 10.26a.894.894 0 0 0-.558.47l-.072.148.001.207c0 .193.004.217.059.353.076.193.152.312.291.448.24.238.51.3.872.205a.86.86 0 0 0 .517-.436.752.752 0 0 0 .08-.498c-.064-.453-.33-.782-.724-.897a1.06 1.06 0 0 0-.466 0zm-9.203.005c-.305.096-.533.32-.65.639a1.187 1.187 0 0 0-.06.52c.057.309.31.59.598.667.362.095.632.033.872-.205.14-.136.215-.255.291-.448.055-.136.059-.16.059-.353l.001-.207-.072-.148a.894.894 0 0 0-.565-.472 1.02 1.02 0 0 0-.474.007Zm4.184 2c-.131.071-.223.25-.195.383.031.143.157.288.353.407.105.063.112.072.117.136.004.038-.01.146-.029.243-.02.094-.036.194-.036.222.002.074.07.195.143.253.064.052.076.054.255.059.164.005.198.001.264-.03.169-.082.212-.234.15-.525-.052-.243-.042-.28.087-.355.137-.08.281-.219.324-.314a.365.365 0 0 0-.175-.48.394.394 0 0 0-.181-.033c-.126 0-.207.03-.355.124l-.085.053-.053-.032c-.219-.13-.259-.145-.391-.143a.396.396 0 0 0-.193.032zm.39-2.195c-.373.036-.475.05-.654.086-.291.06-.68.195-.951.328-.94.46-1.589 1.226-1.787 2.114-.04.176-.045.234-.045.53 0 .294.005.357.043.524.264 1.16 1.332 2.017 2.714 2.173.3.033 1.596.033 1.896 0 1.11-.125 2.064-.727 2.493-1.571.114-.226.169-.372.22-.602.039-.167.044-.23.044-.523 0-.297-.005-.355-.045-.531-.288-1.29-1.539-2.304-3.072-2.497a6.873 6.873 0 0 0-.855-.031zm.645.937a3.283 3.283 0 0 1 1.44.514c.223.148.537.458.671.662.166.251.26.508.303.82.02.143.01.251-.043.482-.08.345-.332.705-.672.957a3.115 3.115 0 0 1-.689.348c-.382.122-.632.144-1.525.138-.582-.006-.686-.01-.853-.042-.57-.107-1.022-.334-1.35-.68-.264-.28-.385-.535-.45-.946-.03-.192.025-.509.137-.776.136-.326.488-.73.836-.963.403-.269.934-.46 1.422-.512.187-.02.586-.02.773-.002zm-5.503-11a1.653 1.653 0 0 0-.683.298C5.617.74 5.173 1.666 4.985 2.819c-.07.436-.119 1.04-.119 1.503 0 .544.064 1.24.155 1.721.02.107.031.202.023.208a8.12 8.12 0 0 1-.187.152 5.324 5.324 0 0 0-.949 1.02 5.49 5.49 0 0 0-.94 2.339 6.625 6.625 0 0 0-.023 1.357c.091.78.325 1.438.727 2.04l.13.195-.037.064c-.269.452-.498 1.105-.605 1.732-.084.496-.095.629-.095 1.294 0 .67.009.803.088 1.266.095.555.288 1.143.503 1.534.071.128.243.393.264.407.007.003-.014.067-.046.141a7.405 7.405 0 0 0-.548 1.873c-.062.417-.071.552-.071.991 0 .56.031.832.148 1.279L3.42 24h1.478l-.05-.091c-.297-.552-.325-1.575-.068-2.597.117-.472.25-.819.498-1.296l.148-.29v-.177c0-.165-.003-.184-.057-.293a.915.915 0 0 0-.194-.25 1.74 1.74 0 0 1-.385-.543c-.424-.92-.506-2.286-.208-3.451.124-.486.329-.918.544-1.154a.787.787 0 0 0 .223-.531c0-.195-.07-.355-.224-.522a3.136 3.136 0 0 1-.817-1.729c-.14-.96.114-2.005.69-2.834.563-.814 1.353-1.336 2.237-1.475.199-.033.57-.028.776.01.226.04.367.028.512-.041.179-.085.268-.19.374-.431.093-.215.165-.333.36-.576.234-.29.46-.489.822-.729.413-.27.884-.467 1.352-.561.17-.035.25-.04.569-.04.319 0 .398.005.569.04a4.07 4.07 0 0 1 1.914.997c.117.109.398.457.488.602.034.057.095.177.132.267.105.241.195.346.374.43.14.068.286.082.503.045.343-.058.607-.053.943.016 1.144.23 2.14 1.173 2.581 2.437.385 1.108.276 2.267-.296 3.153-.097.15-.193.27-.333.419-.301.322-.301.722-.001 1.053.493.539.801 1.866.708 3.036-.062.772-.26 1.463-.533 1.854a2.096 2.096 0 0 1-.224.258.916.916 0 0 0-.194.25c-.054.109-.057.128-.057.293v.178l.148.29c.248.476.38.823.498 1.295.253 1.008.231 2.01-.059 2.581a.845.845 0 0 0-.044.098c0 .006.329.009.732.009h.73l.02-.074.036-.134c.019-.076.057-.3.088-.516.029-.217.029-1.016 0-1.258-.11-.875-.295-1.57-.597-2.226-.032-.074-.053-.138-.046-.141.008-.005.057-.074.108-.152.376-.569.607-1.284.724-2.228.031-.26.031-1.378 0-1.628-.083-.645-.182-1.082-.348-1.525a6.083 6.083 0 0 0-.329-.7l-.038-.064.131-.194c.402-.604.636-1.262.727-2.04a6.625 6.625 0 0 0-.024-1.358 5.512 5.512 0 0 0-.939-2.339 5.325 5.325 0 0 0-.95-1.02 8.097 8.097 0 0 1-.186-.152.692.692 0 0 1 .023-.208c.208-1.087.201-2.443-.017-3.503-.19-.924-.535-1.658-.98-2.082-.354-.338-.716-.482-1.15-.455-.996.059-1.8 1.205-2.116 3.01a6.805 6.805 0 0 0-.097.726c0 .036-.007.066-.015.066a.96.96 0 0 1-.149-.078A4.857 4.857 0 0 0 12 3.03c-.832 0-1.687.243-2.456.698a.958.958 0 0 1-.148.078c-.008 0-.015-.03-.015-.066a6.71 6.71 0 0 0-.097-.725C8.997 1.392 8.337.319 7.46.048a2.096 2.096 0 0 0-.585-.041Zm.293 1.402c.248.197.523.759.682 1.388.03.113.06.244.069.292.007.047.026.152.041.233.067.365.098.76.102 1.24l.002.475-.12.175-.118.178h-.278c-.324 0-.646.041-.954.124l-.238.06c-.033.007-.038-.003-.057-.144a8.438 8.438 0 0 1 .016-2.323c.124-.788.413-1.501.696-1.711.067-.05.079-.049.157.013zm9.825-.012c.17.126.358.46.498.888.28.854.36 2.028.212 3.145-.019.14-.024.151-.057.144l-.238-.06a3.693 3.693 0 0 0-.954-.124h-.278l-.119-.178-.119-.175.002-.474c.004-.669.066-1.19.214-1.772.157-.623.434-1.185.68-1.382.078-.062.09-.063.159-.012z" fill="#E2542F"/></g><text x="226" y="178" font-size="12" font-weight="600" fill="#E2542F">Ollama</text></g></g>
<g opacity="0"><animate attributeName="opacity" from="0" to="1" begin="1.1300000000000001s" dur="0.45s" fill="freeze"/><animateTransform attributeName="transform" type="translate" from="0 8" to="0 0" begin="1.1300000000000001s" dur="0.45s" calcMode="spline" keyTimes="0;1" keySplines="0.2 0.8 0.3 1" fill="freeze"/><g><animateTransform attributeName="transform" type="translate" values="0 0;0 -2.4;0 0" keyTimes="0;0.5;1" calcMode="spline" keySplines="0.4 0 0.6 1;0.4 0 0.6 1" dur="4.2s" begin="3.3s" repeatCount="indefinite"/><rect x="290" y="163" width="71" height="22" rx="11" fill="#F4795B" fill-opacity="0.07" stroke="#F4795B" stroke-width="1.3"/><g transform="translate(301,167) scale(0.5833)"><path d="m23.6 0-8.721 4.59L9.829 24h7.41zM9.83 24V5.142H.4Z" fill="#F4795B"/></g><text x="321" y="178" font-size="12" font-weight="600" fill="#F4795B">vLLM</text></g></g>
<g opacity="0"><animate attributeName="opacity" from="0" to="1" begin="1.2000000000000002s" dur="0.45s" fill="freeze"/><animateTransform attributeName="transform" type="translate" from="0 8" to="0 0" begin="1.2000000000000002s" dur="0.45s" calcMode="spline" keyTimes="0;1" keySplines="0.2 0.8 0.3 1" fill="freeze"/><g><animateTransform attributeName="transform" type="translate" values="0 0;0 -2.4;0 0" keyTimes="0;0.5;1" calcMode="spline" keySplines="0.4 0 0.6 1;0.4 0 0.6 1" dur="3.6s" begin="3.7s" repeatCount="indefinite"/><rect x="371" y="163" width="128" height="22" rx="11" fill="#ED8B66" fill-opacity="0.07" stroke="#ED8B66" stroke-width="1.3"/><g transform="translate(382,167) scale(0.5833)"><path d="M12.025 1.13c-5.77 0-10.449 4.647-10.449 10.378 0 1.112.178 2.181.503 3.185.064-.222.203-.444.416-.577a.96.96 0 0 1 .524-.15c.293 0 .584.124.84.284.278.173.48.408.71.694.226.282.458.611.684.951v-.014c.017-.324.106-.622.264-.874s.403-.487.762-.543c.3-.047.596.06.787.203s.31.313.4.467c.15.257.212.468.233.542.01.026.653 1.552 1.657 2.54.616.605 1.01 1.223 1.082 1.912.055.537-.096 1.059-.38 1.572.637.121 1.294.187 1.967.187.657 0 1.298-.063 1.921-.178-.287-.517-.44-1.041-.384-1.581.07-.69.465-1.307 1.081-1.913 1.004-.987 1.647-2.513 1.657-2.539.021-.074.083-.285.233-.542.09-.154.208-.323.4-.467a1.08 1.08 0 0 1 .787-.203c.359.056.604.29.762.543s.247.55.265.874v.015c.225-.34.457-.67.683-.952.23-.286.432-.52.71-.694.257-.16.547-.284.84-.285a.97.97 0 0 1 .524.151c.228.143.373.388.43.625l.006.04a10.3 10.3 0 0 0 .534-3.273c0-5.731-4.678-10.378-10.449-10.378M8.327 6.583a1.5 1.5 0 0 1 .713.174 1.487 1.487 0 0 1 .617 2.013c-.183.343-.762-.214-1.102-.094-.38.134-.532.914-.917.71a1.487 1.487 0 0 1 .69-2.803m7.486 0a1.487 1.487 0 0 1 .689 2.803c-.385.204-.536-.576-.916-.71-.34-.12-.92.437-1.103.094a1.487 1.487 0 0 1 .617-2.013 1.5 1.5 0 0 1 .713-.174m-10.68 1.55a.96.96 0 1 1 0 1.921.96.96 0 0 1 0-1.92m13.838 0a.96.96 0 1 1 0 1.92.96.96 0 0 1 0-1.92M8.489 11.458c.588.01 1.965 1.157 3.572 1.164 1.607-.007 2.984-1.155 3.572-1.164.196-.003.305.12.305.454 0 .886-.424 2.328-1.563 3.202-.22-.756-1.396-1.366-1.63-1.32q-.011.001-.02.006l-.044.026-.01.008-.03.024q-.018.017-.035.036l-.032.04a1 1 0 0 0-.058.09l-.014.025q-.049.088-.11.19a1 1 0 0 1-.083.116 1.2 1.2 0 0 1-.173.18q-.035.029-.075.058a1.3 1.3 0 0 1-.251-.243 1 1 0 0 1-.076-.107c-.124-.193-.177-.363-.337-.444-.034-.016-.104-.008-.2.022q-.094.03-.216.087-.06.028-.125.063l-.13.074q-.067.04-.136.086a3 3 0 0 0-.135.096 3 3 0 0 0-.26.219 2 2 0 0 0-.12.121 2 2 0 0 0-.106.128l-.002.002a2 2 0 0 0-.09.132l-.001.001a1.2 1.2 0 0 0-.105.212q-.013.036-.024.073c-1.139-.875-1.563-2.317-1.563-3.203 0-.334.109-.457.305-.454m.836 10.354c.824-1.19.766-2.082-.365-3.194-1.13-1.112-1.789-2.738-1.789-2.738s-.246-.945-.806-.858-.97 1.499.202 2.362c1.173.864-.233 1.45-.685.64-.45-.812-1.683-2.896-2.322-3.295s-1.089-.175-.938.647 2.822 2.813 2.562 3.244-1.176-.506-1.176-.506-2.866-2.567-3.49-1.898.473 1.23 2.037 2.16c1.564.932 1.686 1.178 1.464 1.53s-3.675-2.511-4-1.297c-.323 1.214 3.524 1.567 3.287 2.405-.238.839-2.71-1.587-3.216-.642-.506.946 3.49 2.056 3.522 2.064 1.29.33 4.568 1.028 5.713-.624m5.349 0c-.824-1.19-.766-2.082.365-3.194 1.13-1.112 1.789-2.738 1.789-2.738s.246-.945.806-.858.97 1.499-.202 2.362c-1.173.864.233 1.45.685.64.451-.812 1.683-2.896 2.322-3.295s1.089-.175.938.647-2.822 2.813-2.562 3.244 1.176-.506 1.176-.506 2.866-2.567 3.49-1.898-.473 1.23-2.037 2.16c-1.564.932-1.686 1.178-1.464 1.53s3.675-2.511 4-1.297c.323 1.214-3.524 1.567-3.287 2.405.238.839 2.71-1.587 3.216-.642.506.946-3.49 2.056-3.522 2.064-1.29.33-4.568 1.028-5.713-.624" fill="#ED8B66"/></g><text x="402" y="178" font-size="12" font-weight="600" fill="#ED8B66">Hugging Face</text></g></g>
<g opacity="0"><animate attributeName="opacity" from="0" to="1" begin="1.27s" dur="0.45s" fill="freeze"/><animateTransform attributeName="transform" type="translate" from="0 8" to="0 0" begin="1.27s" dur="0.45s" calcMode="spline" keyTimes="0;1" keySplines="0.2 0.8 0.3 1" fill="freeze"/><g><animateTransform attributeName="transform" type="translate" values="0 0;0 -2.4;0 0" keyTimes="0;0.5;1" calcMode="spline" keySplines="0.4 0 0.6 1;0.4 0 0.6 1" dur="4.5s" begin="4.1s" repeatCount="indefinite"/><rect x="509" y="163" width="114" height="22" rx="11" fill="#7FA36B" fill-opacity="0.07" stroke="#7FA36B" stroke-width="1.3"/><g transform="translate(520,167) scale(0.5833)"><path d="M16.778 1.844v1.919q-.569-.026-1.138-.032-.708-.008-1.415.037c-1.93.126-4.023.728-6.149 2.237-2.911 2.066-2.731 1.95-4.14 2.75-.396.223-1.342.574-2.185.798-.841.225-1.753.333-1.751.333v4.229s.768.108 1.61.333c.842.224 1.789.575 2.185.799 1.41.798 1.228.683 4.14 2.75 2.126 1.509 4.22 2.11 6.148 2.236.88.058 1.716.041 2.555.005v1.918l7.222-4.168-7.222-4.17v2.176c-.86.038-1.611.065-2.278.021-1.364-.09-2.417-.357-3.979-1.465-2.244-1.593-2.866-2.027-3.68-2.508.889-.518 1.449-.906 3.822-2.59 1.56-1.109 2.614-1.377 3.978-1.466.667-.044 1.418-.017 2.278.02v2.176L24 6.014Z" fill="#7FA36B"/></g><text x="540" y="178" font-size="12" font-weight="600" fill="#7FA36B">OpenRouter</text></g></g>
<g opacity="0"><animate attributeName="opacity" from="0" to="1" begin="1.34s" dur="0.45s" fill="freeze"/><animateTransform attributeName="transform" type="translate" from="0 8" to="0 0" begin="1.34s" dur="0.45s" calcMode="spline" keyTimes="0;1" keySplines="0.2 0.8 0.3 1" fill="freeze"/><g><animateTransform attributeName="transform" type="translate" values="0 0;0 -2.4;0 0" keyTimes="0;0.5;1" calcMode="spline" keySplines="0.4 0 0.6 1;0.4 0 0.6 1" dur="3.9s" begin="4.5s" repeatCount="indefinite"/><rect x="633" y="163" width="85" height="22" rx="11" fill="#E2542F" fill-opacity="0.07" stroke="#E2542F" stroke-width="1.3"/><g transform="translate(644,167) scale(0.5833)"><path d="M 12 1.527 A 1.532 1.532 0 0 0 11.24 1.73 L 0.7695 7.732 A 1.532 1.532 0 0 0 0 9.021 L 0 9.109 A 1.532 1.532 0 0 0 0.7695 10.4 L 3.57 12 L 0.7695 13.61 C 0.256 13.9 0 14.42 0 14.94 C 0 15.45 0.256 15.97 0.7695 16.26 L 11.24 22.27 C 11.71 22.54 12.29 22.54 12.76 22.27 L 23.23 16.26 C 23.73 15.98 23.99 15.48 24 14.97 L 24 14.9 C 23.99 14.4 23.73 13.89 23.23 13.61 L 20.42 12 L 23.23 10.4 A 1.532 1.532 0 0 0 24 9.223 L 24 8.91 A 1.532 1.532 0 0 0 23.23 7.732 L 12.76 1.73 A 1.532 1.532 0 0 0 12 1.527 z M 12 4.826 L 19.39 9.061 L 17.34 10.24 L 12.76 7.602 C 12.53 7.47 12.27 7.398 12 7.398 C 11.73 7.398 11.47 7.469 11.24 7.602 L 6.652 10.24 L 4.613 9.061 L 12 4.826 z M 12 10.7 L 14.27 12 L 12 13.3 L 9.734 12 L 12 10.7 z M 6.652 13.77 L 11.24 16.39 A 1.532 1.532 0 0 0 12.76 16.39 L 17.34 13.77 L 19.39 14.94 L 12 19.17 L 4.613 14.94 L 6.652 13.77 z" fill="#E2542F"/></g><text x="664" y="178" font-size="12" font-weight="600" fill="#E2542F">Gradio</text></g></g>
<g opacity="0"><animate attributeName="opacity" from="0" to="1" begin="1.4100000000000001s" dur="0.45s" fill="freeze"/><animateTransform attributeName="transform" type="translate" from="0 8" to="0 0" begin="1.4100000000000001s" dur="0.45s" calcMode="spline" keyTimes="0;1" keySplines="0.2 0.8 0.3 1" fill="freeze"/><g><animateTransform attributeName="transform" type="translate" values="0 0;0 -2.4;0 0" keyTimes="0;0.5;1" calcMode="spline" keySplines="0.4 0 0.6 1;0.4 0 0.6 1" dur="4.8s" begin="4.9s" repeatCount="indefinite"/><rect x="728" y="163" width="107" height="22" rx="11" fill="#F4795B" fill-opacity="0.07" stroke="#F4795B" stroke-width="1.3"/><g transform="translate(739,167) scale(0.5833)"><path d="M16.673 11.32l6.862-3.618c.233-.136.554.12.442.387L20.463 17.1zm-8.556-.229l3.473-5.187c.203-.328.578-.316.793-.028l7.886 11.75zm-3.375 7.25c-.28 0-.835-.284-.993-.716l-3.72-9.46c-.118-.331.139-.614.48-.464l19.474 10.306c-.149.147-.453.337-.72.334z" fill="#F4795B"/></g><text x="759" y="178" font-size="12" font-weight="600" fill="#F4795B">Streamlit</text></g></g>
<g transform="translate(52,236)"><g opacity="0"><animate attributeName="opacity" from="0" to="1" begin="1.09s" dur="0.4s" fill="freeze"/><animateTransform attributeName="transform" type="scale" from="0" to="1" begin="1.09s" dur="0.5s" calcMode="spline" keyTimes="0;1" keySplines="0.2 0.8 0.3 1" fill="freeze"/><g><animateTransform attributeName="transform" type="rotate" from="0" to="-360" begin="1s" dur="20.5s" repeatCount="indefinite"/><circle cx="0" cy="-6.5" r="3.4" fill="#F4795B"/><circle cx="6.2" cy="-2" r="3.4" fill="#F4795B"/><circle cx="3.8" cy="5.3" r="3.4" fill="#F4795B"/><circle cx="-3.8" cy="5.3" r="3.4" fill="#F4795B"/><circle cx="-6.2" cy="-2" r="3.4" fill="#F4795B"/></g><circle r="2.8" fill="#E2542F"/></g></g>
<text x="70" y="240" font-size="11" letter-spacing="1.5" fill="#8b949e" opacity="0">RAG / DATA<animate attributeName="opacity" from="0" to="1" begin="1.1400000000000001s" dur="0.5s" fill="freeze"/></text>
<g opacity="0"><animate attributeName="opacity" from="0" to="1" begin="1.34s" dur="0.45s" fill="freeze"/><animateTransform attributeName="transform" type="translate" from="0 8" to="0 0" begin="1.34s" dur="0.45s" calcMode="spline" keyTimes="0;1" keySplines="0.2 0.8 0.3 1" fill="freeze"/><g><animateTransform attributeName="transform" type="translate" values="0 0;0 -2.4;0 0" keyTimes="0;0.5;1" calcMode="spline" keySplines="0.4 0 0.6 1;0.4 0 0.6 1" dur="3.9s" begin="3.1s" repeatCount="indefinite"/><rect x="195" y="225" width="85" height="22" rx="11" fill="#E2542F" fill-opacity="0.07" stroke="#E2542F" stroke-width="1.3"/><g transform="translate(206,229) scale(0.5833)"><path d="m12 16.5 3.897-2.25v-4.5L12 7.5 8.103 9.75v4.5zM1.607 18 12 24l3.897-2.25v-4.5L12 19.5l-6.495-3.75v-7.5L12 4.5l6.495 3.75v15L22.393 21V6L12 0 1.607 6Z" fill="#E2542F"/></g><text x="226" y="240" font-size="12" font-weight="600" fill="#E2542F">Qdrant</text></g></g>
<g opacity="0"><animate attributeName="opacity" from="0" to="1" begin="1.4100000000000001s" dur="0.45s" fill="freeze"/><animateTransform attributeName="transform" type="translate" from="0 8" to="0 0" begin="1.4100000000000001s" dur="0.45s" calcMode="spline" keyTimes="0;1" keySplines="0.2 0.8 0.3 1" fill="freeze"/><g><animateTransform attributeName="transform" type="translate" values="0 0;0 -2.4;0 0" keyTimes="0;0.5;1" calcMode="spline" keySplines="0.4 0 0.6 1;0.4 0 0.6 1" dur="4.8s" begin="3.5s" repeatCount="indefinite"/><rect x="290" y="225" width="85" height="22" rx="11" fill="#F4795B" fill-opacity="0.07" stroke="#F4795B" stroke-width="1.3"/><g transform="translate(301,229) scale(0.5833)"><path d="M15.536 11.997a4.005 4.005 0 0 1-4.015 4.018c-2.36-.005-4.05-1.954-4.01-4.08a4.013 4.013 0 0 1 8.025.061zm8.463-.04a.823.823 0 0 1-.25.616q-1.122 1.128-2.248 2.25c-.082.083-.165.1-.25.054-.091-.048-.124-.121-.098-.242a12.764 12.764 0 0 0 .25-1.626 12.153 12.153 0 0 0 .028-1.49 11.56 11.56 0 0 0-.27-2.114.255.255 0 0 1 .017-.213.194.194 0 0 1 .273-.052.628.628 0 0 1 .086.075l2.174 2.174c.171.17.29.366.289.567zM11.226 20c-1.89-.002-3.488-.565-4.926-1.611a8.317 8.317 0 0 1-.952-.816q-1.125-1.112-2.253-2.221l-1.931-1.899c-.291-.285-.583-.57-.873-.857-.393-.39-.387-.83.012-1.217.296-.288.59-.579.885-.868q1.433-1.41 2.867-2.818c.532-.522 1.057-1.051 1.604-1.555a7.996 7.996 0 0 1 3.786-1.95A7.668 7.668 0 0 1 11.135 4c1.89.015 3.612.546 5.113 1.723a7.987 7.987 0 0 1 2.282 2.77 7.567 7.567 0 0 1 .76 2.556c.255 2.404-.414 4.518-2.046 6.312a7.772 7.772 0 0 1-3.927 2.366 8.995 8.995 0 0 1-2.091.274zm.364-2.137a5.819 5.819 0 0 0 .605-.036 5.35 5.35 0 0 0 .38-.05c1.525-.28 2.76-1.051 3.704-2.263.92-1.178 1.28-2.542 1.168-4.028a5.626 5.626 0 0 0-.631-2.168c-.627-1.213-1.596-2.067-2.817-2.646-1.096-.519-2.248-.649-3.443-.464A5.814 5.814 0 0 0 7.33 7.8c-.858.83-1.707 1.669-2.56 2.504-.426.419-.85.841-1.28 1.257-.274.266-.286.588-.013.857q.804.793 1.61 1.583c.722.709 1.44 1.42 2.165 2.126 1.184 1.153 2.604 1.737 4.339 1.738z" fill="#F4795B"/></g><text x="321" y="240" font-size="12" font-weight="600" fill="#F4795B">Milvus</text></g></g>
<g opacity="0"><animate attributeName="opacity" from="0" to="1" begin="1.48s" dur="0.45s" fill="freeze"/><animateTransform attributeName="transform" type="translate" from="0 8" to="0 0" begin="1.48s" dur="0.45s" calcMode="spline" keyTimes="0;1" keySplines="0.2 0.8 0.3 1" fill="freeze"/><g><animateTransform attributeName="transform" type="translate" values="0 0;0 -2.4;0 0" keyTimes="0;0.5;1" calcMode="spline" keySplines="0.4 0 0.6 1;0.4 0 0.6 1" dur="4.2s" begin="3.9s" repeatCount="indefinite"/><rect x="385" y="225" width="100" height="22" rx="11" fill="#ED8B66" fill-opacity="0.07" stroke="#ED8B66" stroke-width="1.3"/><g transform="translate(396,229) scale(0.5833)"><path d="M23.5594 14.7228a.5269.5269 0 0 0-.0563-.1191c-.139-.2632-.4768-.3418-1.0074-.2321-1.6533.3411-2.2935.1312-2.5256-.0191 1.342-2.0482 2.445-4.522 3.0411-6.8297.2714-1.0507.7982-3.5237.1222-4.7316a1.5641 1.5641 0 0 0-.1509-.235C21.6931.9086 19.8007.0248 17.5099.0005c-1.4947-.0158-2.7705.3461-3.1161.4794a9.449 9.449 0 0 0-.5159-.0816 8.044 8.044 0 0 0-1.3114-.1278c-1.1822-.0184-2.2038.2642-3.0498.8406-.8573-.3211-4.7888-1.645-7.2219.0788C.9359 2.1526.3086 3.8733.4302 6.3043c.0409.818.5069 3.334 1.2423 5.7436.4598 1.5065.9387 2.7019 1.4334 3.582.553.9942 1.1259 1.5933 1.7143 1.7895.4474.1491 1.1327.1441 1.8581-.7279.8012-.9635 1.5903-1.8258 1.9446-2.2069.4351.2355.9064.3625 1.39.3772a.0569.0569 0 0 0 .0004.0041 11.0312 11.0312 0 0 0-.2472.3054c-.3389.4302-.4094.5197-1.5002.7443-.3102.064-1.1344.2339-1.1464.8115-.0025.1224.0329.2309.0919.3268.2269.4231.9216.6097 1.015.6331 1.3345.3335 2.5044.092 3.3714-.6787-.017 2.231.0775 4.4174.3454 5.0874.2212.5529.7618 1.9045 2.4692 1.9043.2505 0 .5263-.0291.8296-.0941 1.7819-.3821 2.5557-1.1696 2.855-2.9059.1503-.8707.4016-2.8753.5388-4.1012.0169-.0703.0357-.1207.057-.1362.0007-.0005.0697-.0471.4272.0307a.3673.3673 0 0 0 .0443.0068l.2539.0223.0149.001c.8468.0384 1.9114-.1426 2.5312-.4308.6438-.2988 1.8057-1.0323 1.5951-1.6698zM2.371 11.8765c-.7435-2.4358-1.1779-4.8851-1.2123-5.5719-.1086-2.1714.4171-3.6829 1.5623-4.4927 1.8367-1.2986 4.8398-.5408 6.108-.13-.0032.0032-.0066.0061-.0098.0094-2.0238 2.044-1.9758 5.536-1.9708 5.7495-.0002.0823.0066.1989.0162.3593.0348.5873.0996 1.6804-.0735 2.9184-.1609 1.1504.1937 2.2764.9728 3.0892.0806.0841.1648.1631.2518.2374-.3468.3714-1.1004 1.1926-1.9025 2.1576-.5677.6825-.9597.5517-1.0886.5087-.3919-.1307-.813-.5871-1.2381-1.3223-.4796-.839-.9635-2.0317-1.4155-3.5126zm6.0072 5.0871c-.1711-.0428-.3271-.1132-.4322-.1772.0889-.0394.2374-.0902.4833-.1409 1.2833-.2641 1.4815-.4506 1.9143-1.0002.0992-.126.2116-.2687.3673-.4426a.3549.3549 0 0 0 .0737-.1298c.1708-.1513.2724-.1099.4369-.0417.156.0646.3078.26.3695.4752.0291.1016.0619.2945-.0452.4444-.9043 1.2658-2.2216 1.2494-3.1676 1.0128zm2.094-3.988-.0525.141c-.133.3566-.2567.6881-.3334 1.003-.6674-.0021-1.3168-.2872-1.8105-.8024-.6279-.6551-.9131-1.5664-.7825-2.5004.1828-1.3079.1153-2.4468.079-3.0586-.005-.0857-.0095-.1607-.0122-.2199.2957-.2621 1.6659-.9962 2.6429-.7724.4459.1022.7176.4057.8305.928.5846 2.7038.0774 3.8307-.3302 4.7363-.084.1866-.1633.3629-.2311.5454zm7.3637 4.5725c-.0169.1768-.0358.376-.0618.5959l-.146.4383a.3547.3547 0 0 0-.0182.1077c-.0059.4747-.054.6489-.115.8693-.0634.2292-.1353.4891-.1794 1.0575-.11 1.4143-.8782 2.2267-2.4172 2.5565-1.5155.3251-1.7843-.4968-2.0212-1.2217a6.5824 6.5824 0 0 0-.0769-.2266c-.2154-.5858-.1911-1.4119-.1574-2.5551.0165-.5612-.0249-1.9013-.3302-2.6462.0044-.2932.0106-.5909.019-.8918a.3529.3529 0 0 0-.0153-.1126 1.4927 1.4927 0 0 0-.0439-.208c-.1226-.4283-.4213-.7866-.7797-.9351-.1424-.059-.4038-.1672-.7178-.0869.067-.276.1831-.5875.309-.9249l.0529-.142c.0595-.16.134-.3257.213-.5012.4265-.9476 1.0106-2.2453.3766-5.1772-.2374-1.0981-1.0304-1.6343-2.2324-1.5098-.7207.0746-1.3799.3654-1.7088.5321a5.6716 5.6716 0 0 0-.1958.1041c.0918-1.1064.4386-3.1741 1.7357-4.4823a4.0306 4.0306 0 0 1 .3033-.276.3532.3532 0 0 0 .1447-.0644c.7524-.5706 1.6945-.8506 2.802-.8325.4091.0067.8017.0339 1.1742.081 1.939.3544 3.2439 1.4468 4.0359 2.3827.8143.9623 1.2552 1.9315 1.4312 2.4543-1.3232-.1346-2.2234.1268-2.6797.779-.9926 1.4189.543 4.1729 1.2811 5.4964.1353.2426.2522.4522.2889.5413.2403.5825.5515.9713.7787 1.2552.0696.087.1372.1714.1885.245-.4008.1155-1.1208.3825-1.0552 1.717-.0123.1563-.0423.4469-.0834.8148-.0461.2077-.0702.4603-.0994.7662zm.8905-1.6211c-.0405-.8316.2691-.9185.5967-1.0105a2.8566 2.8566 0 0 0 .135-.0406 1.202 1.202 0 0 0 .1342.103c.5703.3765 1.5823.4213 3.0068.1344-.2016.1769-.5189.3994-.9533.6011-.4098.1903-1.0957.333-1.7473.3636-.7197.0336-1.0859-.0807-1.1721-.151zm.5695-9.2712c-.0059.3508-.0542.6692-.1054 1.0017-.055.3576-.112.7274-.1264 1.1762-.0142.4368.0404.8909.0932 1.3301.1066.887.216 1.8003-.2075 2.7014a3.5272 3.5272 0 0 1-.1876-.3856c-.0527-.1276-.1669-.3326-.3251-.6162-.6156-1.1041-2.0574-3.6896-1.3193-4.7446.3795-.5427 1.3408-.5661 2.1781-.463zm.2284 7.0137a12.3762 12.3762 0 0 0-.0853-.1074l-.0355-.0444c.7262-1.1995.5842-2.3862.4578-3.4385-.0519-.4318-.1009-.8396-.0885-1.2226.0129-.4061.0666-.7543.1185-1.0911.0639-.415.1288-.8443.1109-1.3505.0134-.0531.0188-.1158.0118-.1902-.0457-.4855-.5999-1.938-1.7294-3.253-.6076-.7073-1.4896-1.4972-2.6889-2.0395.5251-.1066 1.2328-.2035 2.0244-.1859 2.0515.0456 3.6746.8135 4.8242 2.2824a.908.908 0 0 1 .0667.1002c.7231 1.3556-.2762 6.2751-2.9867 10.5405zm-8.8166-6.1162c-.025.1794-.3089.4225-.6211.4225a.5821.5821 0 0 1-.0809-.0056c-.1873-.026-.3765-.144-.5059-.3156-.0458-.0605-.1203-.178-.1055-.2844.0055-.0401.0261-.0985.0925-.1488.1182-.0894.3518-.1226.6096-.0867.3163.0441.6426.1938.6113.4186zm7.9305-.4114c.0111.0792-.049.201-.1531.3102-.0683.0717-.212.1961-.4079.2232a.5456.5456 0 0 1-.075.0052c-.2935 0-.5414-.2344-.5607-.3717-.024-.1765.2641-.3106.5611-.352.297-.0414.6111.0088.6356.1851z" fill="#ED8B66"/></g><text x="416" y="240" font-size="12" font-weight="600" fill="#ED8B66">pgvector</text></g></g>
<g opacity="0"><animate attributeName="opacity" from="0" to="1" begin="1.55s" dur="0.45s" fill="freeze"/><animateTransform attributeName="transform" type="translate" from="0 8" to="0 0" begin="1.55s" dur="0.45s" calcMode="spline" keyTimes="0;1" keySplines="0.2 0.8 0.3 1" fill="freeze"/><g><animateTransform attributeName="transform" type="translate" values="0 0;0 -2.4;0 0" keyTimes="0;0.5;1" calcMode="spline" keySplines="0.4 0 0.6 1;0.4 0 0.6 1" dur="3.6s" begin="4.3s" repeatCount="indefinite"/><rect x="495" y="225" width="78" height="22" rx="11" fill="#7FA36B" fill-opacity="0.07" stroke="#7FA36B" stroke-width="1.3"/><g transform="translate(506,229) scale(0.5833)"><path d="M22.71 13.145c-1.66 2.092-3.452 4.483-7.038 4.483-3.203 0-4.397-2.825-4.48-5.12.701 1.484 2.073 2.685 4.214 2.63 4.117-.133 6.94-3.852 6.94-7.239 0-4.05-3.022-6.972-8.268-6.972-3.752 0-8.4 1.428-11.455 3.685C2.59 6.937 3.885 9.958 4.35 9.626c2.648-1.904 4.748-3.13 6.784-3.744C8.12 9.244.886 17.05 0 18.425c.1 1.261 1.66 4.648 2.424 4.648.232 0 .431-.133.664-.365a100.49 100.49 0 0 0 5.54-6.765c.222 3.104 1.748 6.898 6.014 6.898 3.819 0 7.604-2.756 9.33-8.965.2-.764-.73-1.361-1.261-.73zm-4.349-5.013c0 1.959-1.926 2.922-3.685 2.922-.941 0-1.664-.247-2.235-.568 1.051-1.592 2.092-3.225 3.21-4.973 1.972.334 2.71 1.43 2.71 2.619z" fill="#7FA36B"/></g><text x="526" y="240" font-size="12" font-weight="600" fill="#7FA36B">Redis</text></g></g>
<g opacity="0"><animate attributeName="opacity" from="0" to="1" begin="1.62s" dur="0.45s" fill="freeze"/><animateTransform attributeName="transform" type="translate" from="0 8" to="0 0" begin="1.62s" dur="0.45s" calcMode="spline" keyTimes="0;1" keySplines="0.2 0.8 0.3 1" fill="freeze"/><g><animateTransform attributeName="transform" type="translate" values="0 0;0 -2.4;0 0" keyTimes="0;0.5;1" calcMode="spline" keySplines="0.4 0 0.6 1;0.4 0 0.6 1" dur="4.5s" begin="4.7s" repeatCount="indefinite"/><rect x="583" y="225" width="100" height="22" rx="11" fill="#E2542F" fill-opacity="0.07" stroke="#E2542F" stroke-width="1.3"/><g transform="translate(594,229) scale(0.5833)"><path d="M11.9 1.036c-.015-.986-1.26-1.41-1.874-.637L.764 12.05C-.33 13.427.65 15.455 2.409 15.455h9.579l.113 7.51c.014.985 1.259 1.408 1.873.636l9.262-11.653c1.093-1.375.113-3.403-1.645-3.403h-9.642z" fill="#E2542F"/></g><text x="614" y="240" font-size="12" font-weight="600" fill="#E2542F">Supabase</text></g></g>
<g transform="translate(52,298)"><g opacity="0"><animate attributeName="opacity" from="0" to="1" begin="1.37s" dur="0.4s" fill="freeze"/><animateTransform attributeName="transform" type="scale" from="0" to="1" begin="1.37s" dur="0.5s" calcMode="spline" keyTimes="0;1" keySplines="0.2 0.8 0.3 1" fill="freeze"/><g><animateTransform attributeName="transform" type="rotate" from="0" to="360" begin="1s" dur="22.0s" repeatCount="indefinite"/><circle cx="0" cy="-6.5" r="3.4" fill="#ED8B66"/><circle cx="6.2" cy="-2" r="3.4" fill="#ED8B66"/><circle cx="3.8" cy="5.3" r="3.4" fill="#ED8B66"/><circle cx="-3.8" cy="5.3" r="3.4" fill="#ED8B66"/><circle cx="-6.2" cy="-2" r="3.4" fill="#ED8B66"/></g><circle r="2.8" fill="#E2542F"/></g></g>
<text x="70" y="302" font-size="11" letter-spacing="1.5" fill="#8b949e" opacity="0">LANG / OPS<animate attributeName="opacity" from="0" to="1" begin="1.4200000000000002s" dur="0.5s" fill="freeze"/></text>
<g opacity="0"><animate attributeName="opacity" from="0" to="1" begin="1.62s" dur="0.45s" fill="freeze"/><animateTransform attributeName="transform" type="translate" from="0 8" to="0 0" begin="1.62s" dur="0.45s" calcMode="spline" keyTimes="0;1" keySplines="0.2 0.8 0.3 1" fill="freeze"/><g><animateTransform attributeName="transform" type="translate" values="0 0;0 -2.4;0 0" keyTimes="0;0.5;1" calcMode="spline" keySplines="0.4 0 0.6 1;0.4 0 0.6 1" dur="4.5s" begin="3.3s" repeatCount="indefinite"/><rect x="195" y="287" width="85" height="22" rx="11" fill="#E2542F" fill-opacity="0.07" stroke="#E2542F" stroke-width="1.3"/><g transform="translate(206,291) scale(0.5833)"><path d="M14.25.18l.9.2.73.26.59.3.45.32.34.34.25.34.16.33.1.3.04.26.02.2-.01.13V8.5l-.05.63-.13.55-.21.46-.26.38-.3.31-.33.25-.35.19-.35.14-.33.1-.3.07-.26.04-.21.02H8.77l-.69.05-.59.14-.5.22-.41.27-.33.32-.27.35-.2.36-.15.37-.1.35-.07.32-.04.27-.02.21v3.06H3.17l-.21-.03-.28-.07-.32-.12-.35-.18-.36-.26-.36-.36-.35-.46-.32-.59-.28-.73-.21-.88-.14-1.05-.05-1.23.06-1.22.16-1.04.24-.87.32-.71.36-.57.4-.44.42-.33.42-.24.4-.16.36-.1.32-.05.24-.01h.16l.06.01h8.16v-.83H6.18l-.01-2.75-.02-.37.05-.34.11-.31.17-.28.25-.26.31-.23.38-.2.44-.18.51-.15.58-.12.64-.1.71-.06.77-.04.84-.02 1.27.05zm-6.3 1.98l-.23.33-.08.41.08.41.23.34.33.22.41.09.41-.09.33-.22.23-.34.08-.41-.08-.41-.23-.33-.33-.22-.41-.09-.41.09zm13.09 3.95l.28.06.32.12.35.18.36.27.36.35.35.47.32.59.28.73.21.88.14 1.04.05 1.23-.06 1.23-.16 1.04-.24.86-.32.71-.36.57-.4.45-.42.33-.42.24-.4.16-.36.09-.32.05-.24.02-.16-.01h-8.22v.82h5.84l.01 2.76.02.36-.05.34-.11.31-.17.29-.25.25-.31.24-.38.2-.44.17-.51.15-.58.13-.64.09-.71.07-.77.04-.84.01-1.27-.04-1.07-.14-.9-.2-.73-.25-.59-.3-.45-.33-.34-.34-.25-.34-.16-.33-.1-.3-.04-.25-.02-.2.01-.13v-5.34l.05-.64.13-.54.21-.46.26-.38.3-.32.33-.24.35-.2.35-.14.33-.1.3-.06.26-.04.21-.02.13-.01h5.84l.69-.05.59-.14.5-.21.41-.28.33-.32.27-.35.2-.36.15-.36.1-.35.07-.32.04-.28.02-.21V6.07h2.09l.14.01zm-6.47 14.25l-.23.33-.08.41.08.41.23.33.33.23.41.08.41-.08.33-.23.23-.33.08-.41-.08-.41-.23-.33-.33-.23-.41-.08-.41.08z" fill="#E2542F"/></g><text x="226" y="302" font-size="12" font-weight="600" fill="#E2542F">Python</text></g></g>
<g opacity="0"><animate attributeName="opacity" from="0" to="1" begin="1.6900000000000002s" dur="0.45s" fill="freeze"/><animateTransform attributeName="transform" type="translate" from="0 8" to="0 0" begin="1.6900000000000002s" dur="0.45s" calcMode="spline" keyTimes="0;1" keySplines="0.2 0.8 0.3 1" fill="freeze"/><g><animateTransform attributeName="transform" type="translate" values="0 0;0 -2.4;0 0" keyTimes="0;0.5;1" calcMode="spline" keySplines="0.4 0 0.6 1;0.4 0 0.6 1" dur="3.9s" begin="3.7s" repeatCount="indefinite"/><rect x="290" y="287" width="114" height="22" rx="11" fill="#F4795B" fill-opacity="0.07" stroke="#F4795B" stroke-width="1.3"/><g transform="translate(301,291) scale(0.5833)"><path d="M1.125 0C.502 0 0 .502 0 1.125v21.75C0 23.498.502 24 1.125 24h21.75c.623 0 1.125-.502 1.125-1.125V1.125C24 .502 23.498 0 22.875 0zm17.363 9.75c.612 0 1.154.037 1.627.111a6.38 6.38 0 0 1 1.306.34v2.458a3.95 3.95 0 0 0-.643-.361 5.093 5.093 0 0 0-.717-.26 5.453 5.453 0 0 0-1.426-.2c-.3 0-.573.028-.819.086a2.1 2.1 0 0 0-.623.242c-.17.104-.3.229-.393.374a.888.888 0 0 0-.14.49c0 .196.053.373.156.529.104.156.252.304.443.444s.423.276.696.41c.273.135.582.274.926.416.47.197.892.407 1.266.628.374.222.695.473.963.753.268.279.472.598.614.957.142.359.214.776.214 1.253 0 .657-.125 1.21-.373 1.656a3.033 3.033 0 0 1-1.012 1.085 4.38 4.38 0 0 1-1.487.596c-.566.12-1.163.18-1.79.18a9.916 9.916 0 0 1-1.84-.164 5.544 5.544 0 0 1-1.512-.493v-2.63a5.033 5.033 0 0 0 3.237 1.2c.333 0 .624-.03.872-.09.249-.06.456-.144.623-.25.166-.108.29-.234.373-.38a1.023 1.023 0 0 0-.074-1.089 2.12 2.12 0 0 0-.537-.5 5.597 5.597 0 0 0-.807-.444 27.72 27.72 0 0 0-1.007-.436c-.918-.383-1.602-.852-2.053-1.405-.45-.553-.676-1.222-.676-2.005 0-.614.123-1.141.369-1.582.246-.441.58-.804 1.004-1.089a4.494 4.494 0 0 1 1.47-.629 7.536 7.536 0 0 1 1.77-.201zm-15.113.188h9.563v2.166H9.506v9.646H6.789v-9.646H3.375z" fill="#F4795B"/></g><text x="321" y="302" font-size="12" font-weight="600" fill="#F4795B">TypeScript</text></g></g>
<g opacity="0"><animate attributeName="opacity" from="0" to="1" begin="1.7600000000000002s" dur="0.45s" fill="freeze"/><animateTransform attributeName="transform" type="translate" from="0 8" to="0 0" begin="1.7600000000000002s" dur="0.45s" calcMode="spline" keyTimes="0;1" keySplines="0.2 0.8 0.3 1" fill="freeze"/><g><animateTransform attributeName="transform" type="translate" values="0 0;0 -2.4;0 0" keyTimes="0;0.5;1" calcMode="spline" keySplines="0.4 0 0.6 1;0.4 0 0.6 1" dur="4.8s" begin="4.1s" repeatCount="indefinite"/><rect x="414" y="287" width="92" height="22" rx="11" fill="#ED8B66" fill-opacity="0.07" stroke="#ED8B66" stroke-width="1.3"/><g transform="translate(425,291) scale(0.5833)"><path d="M12.005 0L4.952 7.053a9.865 9.865 0 000 14.022 9.866 9.866 0 0014.022 0c3.984-3.9 3.986-10.205.085-14.023l-1.744 1.743c2.904 2.905 2.904 7.634 0 10.538s-7.634 2.904-10.538 0-2.904-7.634 0-10.538l4.647-4.646.582-.665zm3.568 3.899a1.327 1.327 0 00-1.327 1.327 1.327 1.327 0 001.327 1.328A1.327 1.327 0 0016.9 5.226 1.327 1.327 0 0015.573 3.9z" fill="#ED8B66"/></g><text x="445" y="302" font-size="12" font-weight="600" fill="#ED8B66">PyTorch</text></g></g>
<g opacity="0"><animate attributeName="opacity" from="0" to="1" begin="1.83s" dur="0.45s" fill="freeze"/><animateTransform attributeName="transform" type="translate" from="0 8" to="0 0" begin="1.83s" dur="0.45s" calcMode="spline" keyTimes="0;1" keySplines="0.2 0.8 0.3 1" fill="freeze"/><g><animateTransform attributeName="transform" type="translate" values="0 0;0 -2.4;0 0" keyTimes="0;0.5;1" calcMode="spline" keySplines="0.4 0 0.6 1;0.4 0 0.6 1" dur="4.2s" begin="4.5s" repeatCount="indefinite"/><rect x="516" y="287" width="92" height="22" rx="11" fill="#7FA36B" fill-opacity="0.07" stroke="#7FA36B" stroke-width="1.3"/><g transform="translate(527,291) scale(0.5833)"><path d="M12 .0387C5.3729.0384.0003 5.3931 0 11.9988c-.001 6.6066 5.372 11.9628 12 11.9625 6.628.0003 12.001-5.3559 12-11.9625-.0003-6.6057-5.3729-11.9604-12-11.96m-.829 5.4153h7.55l-7.5805 5.3284h5.1828L5.279 18.5436q2.9466-6.5444 5.892-13.0896" fill="#7FA36B"/></g><text x="547" y="302" font-size="12" font-weight="600" fill="#7FA36B">FastAPI</text></g></g>
<g opacity="0"><animate attributeName="opacity" from="0" to="1" begin="1.9000000000000001s" dur="0.45s" fill="freeze"/><animateTransform attributeName="transform" type="translate" from="0 8" to="0 0" begin="1.9000000000000001s" dur="0.45s" calcMode="spline" keyTimes="0;1" keySplines="0.2 0.8 0.3 1" fill="freeze"/><g><animateTransform attributeName="transform" type="translate" values="0 0;0 -2.4;0 0" keyTimes="0;0.5;1" calcMode="spline" keySplines="0.4 0 0.6 1;0.4 0 0.6 1" dur="3.6s" begin="4.9s" repeatCount="indefinite"/><rect x="618" y="287" width="85" height="22" rx="11" fill="#E2542F" fill-opacity="0.07" stroke="#E2542F" stroke-width="1.3"/><g transform="translate(629,291) scale(0.5833)"><path d="M13.983 11.078h2.119a.186.186 0 00.186-.185V9.006a.186.186 0 00-.186-.186h-2.119a.185.185 0 00-.185.185v1.888c0 .102.083.185.185.185m-2.954-5.43h2.118a.186.186 0 00.186-.186V3.574a.186.186 0 00-.186-.185h-2.118a.185.185 0 00-.185.185v1.888c0 .102.082.185.185.185m0 2.716h2.118a.187.187 0 00.186-.186V6.29a.186.186 0 00-.186-.185h-2.118a.185.185 0 00-.185.185v1.887c0 .102.082.185.185.186m-2.93 0h2.12a.186.186 0 00.184-.186V6.29a.185.185 0 00-.185-.185H8.1a.185.185 0 00-.185.185v1.887c0 .102.083.185.185.186m-2.964 0h2.119a.186.186 0 00.185-.186V6.29a.185.185 0 00-.185-.185H5.136a.186.186 0 00-.186.185v1.887c0 .102.084.185.186.186m5.893 2.715h2.118a.186.186 0 00.186-.185V9.006a.186.186 0 00-.186-.186h-2.118a.185.185 0 00-.185.185v1.888c0 .102.082.185.185.185m-2.93 0h2.12a.185.185 0 00.184-.185V9.006a.185.185 0 00-.184-.186h-2.12a.185.185 0 00-.184.185v1.888c0 .102.083.185.185.185m-2.964 0h2.119a.185.185 0 00.185-.185V9.006a.185.185 0 00-.184-.186h-2.12a.186.186 0 00-.186.186v1.887c0 .102.084.185.186.185m-2.92 0h2.12a.185.185 0 00.184-.185V9.006a.185.185 0 00-.184-.186h-2.12a.185.185 0 00-.184.185v1.888c0 .102.082.185.185.185M23.763 9.89c-.065-.051-.672-.51-1.954-.51-.338.001-.676.03-1.01.087-.248-1.7-1.653-2.53-1.716-2.566l-.344-.199-.226.327c-.284.438-.49.922-.612 1.43-.23.97-.09 1.882.403 2.661-.595.332-1.55.413-1.744.42H.751a.751.751 0 00-.75.748 11.376 11.376 0 00.692 4.062c.545 1.428 1.355 2.48 2.41 3.124 1.18.723 3.1 1.137 5.275 1.137.983.003 1.963-.086 2.93-.266a12.248 12.248 0 003.823-1.389c.98-.567 1.86-1.288 2.61-2.136 1.252-1.418 1.998-2.997 2.553-4.4h.221c1.372 0 2.215-.549 2.68-1.009.309-.293.55-.65.707-1.046l.098-.288Z" fill="#E2542F"/></g><text x="649" y="302" font-size="12" font-weight="600" fill="#E2542F">Docker</text></g></g>
<g opacity="0"><animate attributeName="opacity" from="0" to="1" begin="1.9700000000000002s" dur="0.45s" fill="freeze"/><animateTransform attributeName="transform" type="translate" from="0 8" to="0 0" begin="1.9700000000000002s" dur="0.45s" calcMode="spline" keyTimes="0;1" keySplines="0.2 0.8 0.3 1" fill="freeze"/><g><animateTransform attributeName="transform" type="translate" values="0 0;0 -2.4;0 0" keyTimes="0;0.5;1" calcMode="spline" keySplines="0.4 0 0.6 1;0.4 0 0.6 1" dur="4.5s" begin="5.3s" repeatCount="indefinite"/><rect x="713" y="287" width="114" height="22" rx="11" fill="#F4795B" fill-opacity="0.07" stroke="#F4795B" stroke-width="1.3"/><g transform="translate(724,291) scale(0.5833)"><path d="M10.204 14.35l.007.01-.999 2.413a5.171 5.171 0 0 1-2.075-2.597l2.578-.437.004.005a.44.44 0 0 1 .484.606zm-.833-2.129a.44.44 0 0 0 .173-.756l.002-.011L7.585 9.7a5.143 5.143 0 0 0-.73 3.255l2.514-.725.002-.009zm1.145-1.98a.44.44 0 0 0 .699-.337l.01-.005.15-2.62a5.144 5.144 0 0 0-3.01 1.442l2.147 1.523.004-.002zm.76 2.75l.723.349.722-.347.18-.78-.5-.623h-.804l-.5.623.179.779zm1.5-3.095a.44.44 0 0 0 .7.336l.008.003 2.134-1.513a5.188 5.188 0 0 0-2.992-1.442l.148 2.615.002.001zm10.876 5.97l-5.773 7.181a1.6 1.6 0 0 1-1.248.594l-9.261.003a1.6 1.6 0 0 1-1.247-.596l-5.776-7.18a1.583 1.583 0 0 1-.307-1.34L2.1 5.573c.108-.47.425-.864.863-1.073L11.305.513a1.606 1.606 0 0 1 1.385 0l8.345 3.985c.438.209.755.604.863 1.073l2.062 8.955c.108.47-.005.963-.308 1.34zm-3.289-2.057c-.042-.01-.103-.026-.145-.034-.174-.033-.315-.025-.479-.038-.35-.037-.638-.067-.895-.148-.105-.04-.18-.165-.216-.216l-.201-.059a6.45 6.45 0 0 0-.105-2.332 6.465 6.465 0 0 0-.936-2.163c.052-.047.15-.133.177-.159.008-.09.001-.183.094-.282.197-.185.444-.338.743-.522.142-.084.273-.137.415-.242.032-.024.076-.062.11-.089.24-.191.295-.52.123-.736-.172-.216-.506-.236-.745-.045-.034.027-.08.062-.111.088-.134.116-.217.23-.33.35-.246.25-.45.458-.673.609-.097.056-.239.037-.303.033l-.19.135a6.545 6.545 0 0 0-4.146-2.003l-.012-.223c-.065-.062-.143-.115-.163-.25-.022-.268.015-.557.057-.905.023-.163.061-.298.068-.475.001-.04-.001-.099-.001-.142 0-.306-.224-.555-.5-.555-.275 0-.499.249-.499.555l.001.014c0 .041-.002.092 0 .128.006.177.044.312.067.475.042.348.078.637.056.906a.545.545 0 0 1-.162.258l-.012.211a6.424 6.424 0 0 0-4.166 2.003 8.373 8.373 0 0 1-.18-.128c-.09.012-.18.04-.297-.029-.223-.15-.427-.358-.673-.608-.113-.12-.195-.234-.329-.349-.03-.026-.077-.062-.111-.088a.594.594 0 0 0-.348-.132.481.481 0 0 0-.398.176c-.172.216-.117.546.123.737l.007.005.104.083c.142.105.272.159.414.242.299.185.546.338.743.522.076.082.09.226.1.288l.16.143a6.462 6.462 0 0 0-1.02 4.506l-.208.06c-.055.072-.133.184-.215.217-.257.081-.546.11-.895.147-.164.014-.305.006-.48.039-.037.007-.09.02-.133.03l-.004.002-.007.002c-.295.071-.484.342-.423.608.061.267.349.429.645.365l.007-.001.01-.003.129-.029c.17-.046.294-.113.448-.172.33-.118.604-.217.87-.256.112-.009.23.069.288.101l.217-.037a6.5 6.5 0 0 0 2.88 3.596l-.09.218c.033.084.069.199.044.282-.097.252-.263.517-.452.813-.091.136-.185.242-.268.399-.02.037-.045.095-.064.134-.128.275-.034.591.213.71.248.12.556-.007.69-.282v-.002c.02-.039.046-.09.062-.127.07-.162.094-.301.144-.458.132-.332.205-.68.387-.897.05-.06.13-.082.215-.105l.113-.205a6.453 6.453 0 0 0 4.609.012l.106.192c.086.028.18.042.256.155.136.232.229.507.342.84.05.156.074.295.145.457.016.037.043.09.062.129.133.276.442.402.69.282.247-.118.341-.435.213-.71-.02-.039-.045-.096-.065-.134-.083-.156-.177-.261-.268-.398-.19-.296-.346-.541-.443-.793-.04-.13.007-.21.038-.294-.018-.022-.059-.144-.083-.202a6.499 6.499 0 0 0 2.88-3.622c.064.01.176.03.213.038.075-.05.144-.114.28-.104.266.039.54.138.87.256.154.06.277.128.448.173.036.01.088.019.13.028l.009.003.007.001c.297.064.584-.098.645-.365.06-.266-.128-.537-.423-.608zM16.4 9.701l-1.95 1.746v.005a.44.44 0 0 0 .173.757l.003.01 2.526.728a5.199 5.199 0 0 0-.108-1.674A5.208 5.208 0 0 0 16.4 9.7zm-4.013 5.325a.437.437 0 0 0-.404-.232.44.44 0 0 0-.372.233h-.002l-1.268 2.292a5.164 5.164 0 0 0 3.326.003l-1.27-2.296h-.01zm1.888-1.293a.44.44 0 0 0-.27.036.44.44 0 0 0-.214.572l-.003.004 1.01 2.438a5.15 5.15 0 0 0 2.081-2.615l-2.6-.44-.004.005z" fill="#F4795B"/></g><text x="744" y="302" font-size="12" font-weight="600" fill="#F4795B">Kubernetes</text></g></g>
<g transform="translate(250,80)"><g><animateTransform attributeName="transform" type="translate" values="0 4;0 -8;0 4" keyTimes="0;0.5;1" calcMode="spline" keySplines="0.4 0 0.6 1;0.4 0 0.6 1" dur="6.0s" begin="2.5s" repeatCount="indefinite"/><circle r="2" fill="#F4795B" opacity="0"><animate attributeName="opacity" values="0;0.55;0" keyTimes="0;0.5;1" dur="6.0s" begin="2.5s" repeatCount="indefinite"/></circle></g></g>
<g transform="translate(520,60)"><g><animateTransform attributeName="transform" type="translate" values="0 4;0 -8;0 4" keyTimes="0;0.5;1" calcMode="spline" keySplines="0.4 0 0.6 1;0.4 0 0.6 1" dur="7.5s" begin="3.4s" repeatCount="indefinite"/><circle r="2" fill="#FBC7B3" opacity="0"><animate attributeName="opacity" values="0;0.55;0" keyTimes="0;0.5;1" dur="7.5s" begin="3.4s" repeatCount="indefinite"/></circle></g></g>
<g transform="translate(700,140)"><g><animateTransform attributeName="transform" type="translate" values="0 4;0 -8;0 4" keyTimes="0;0.5;1" calcMode="spline" keySplines="0.4 0 0.6 1;0.4 0 0.6 1" dur="6.8s" begin="4.2s" repeatCount="indefinite"/><circle r="2" fill="#ED8B66" opacity="0"><animate attributeName="opacity" values="0;0.55;0" keyTimes="0;0.5;1" dur="6.8s" begin="4.2s" repeatCount="indefinite"/></circle></g></g>
<g transform="translate(330,210)"><g><animateTransform attributeName="transform" type="translate" values="0 4;0 -8;0 4" keyTimes="0;0.5;1" calcMode="spline" keySplines="0.4 0 0.6 1;0.4 0 0.6 1" dur="7.2s" begin="5.0s" repeatCount="indefinite"/><circle r="2" fill="#F4795B" opacity="0"><animate attributeName="opacity" values="0;0.55;0" keyTimes="0;0.5;1" dur="7.2s" begin="5.0s" repeatCount="indefinite"/></circle></g></g>
<g transform="translate(620,280)"><g><animateTransform attributeName="transform" type="translate" values="0 4;0 -8;0 4" keyTimes="0;0.5;1" calcMode="spline" keySplines="0.4 0 0.6 1;0.4 0 0.6 1" dur="6.4s" begin="3.0s" repeatCount="indefinite"/><circle r="2" fill="#FBC7B3" opacity="0"><animate attributeName="opacity" values="0;0.55;0" keyTimes="0;0.5;1" dur="6.4s" begin="3.0s" repeatCount="indefinite"/></circle></g></g>
<g transform="translate(150,300)"><g><animateTransform attributeName="transform" type="translate" values="0 4;0 -8;0 4" keyTimes="0;0.5;1" calcMode="spline" keySplines="0.4 0 0.6 1;0.4 0 0.6 1" dur="7.8s" begin="4.6s" repeatCount="indefinite"/><circle r="2" fill="#ED8B66" opacity="0"><animate attributeName="opacity" values="0;0.55;0" keyTimes="0;0.5;1" dur="7.8s" begin="4.6s" repeatCount="indefinite"/></circle></g></g>
<g opacity="0"><animate attributeName="opacity" values="0;0.9;0.9;0" keyTimes="0;0.1;0.9;1" dur="5s" begin="2s" repeatCount="indefinite"/><g><animateMotion dur="5s" begin="2s" repeatCount="indefinite" path="M40 12 C30 78 52 140 40 200 C30 258 48 296 40 326"/><circle r="4.5" fill="#FBC7B3" opacity="0.35"/><circle r="2.2" fill="#F4795B"/></g></g>
<g transform="translate(170,35) scale(0.8)"><g opacity="0"><animate attributeName="opacity" values="0;0.8;0" keyTimes="0;0.5;1" dur="3.2s" begin="2.2s" repeatCount="indefinite"/><animateTransform attributeName="transform" type="rotate" from="0" to="90" dur="3.2s" begin="2.2s" repeatCount="indefinite"/><path d="M0 -7 L1.6 -1.6 L7 0 L1.6 1.6 L0 7 L-1.6 1.6 L-7 0 L-1.6 -1.6 Z" fill="#F4B183"/></g></g>
<g transform="translate(450,145) scale(0.6)"><g opacity="0"><animate attributeName="opacity" values="0;0.8;0" keyTimes="0;0.5;1" dur="4.0s" begin="3.1s" repeatCount="indefinite"/><animateTransform attributeName="transform" type="rotate" from="0" to="90" dur="4.0s" begin="3.1s" repeatCount="indefinite"/><path d="M0 -7 L1.6 -1.6 L7 0 L1.6 1.6 L0 7 L-1.6 1.6 L-7 0 L-1.6 -1.6 Z" fill="#F4B183"/></g></g>
<g transform="translate(760,90) scale(0.9)"><g opacity="0"><animate attributeName="opacity" values="0;0.8;0" keyTimes="0;0.5;1" dur="3.6s" begin="2.7s" repeatCount="indefinite"/><animateTransform attributeName="transform" type="rotate" from="0" to="90" dur="3.6s" begin="2.7s" repeatCount="indefinite"/><path d="M0 -7 L1.6 -1.6 L7 0 L1.6 1.6 L0 7 L-1.6 1.6 L-7 0 L-1.6 -1.6 Z" fill="#F4B183"/></g></g>
<g transform="translate(280,265) scale(0.7)"><g opacity="0"><animate attributeName="opacity" values="0;0.8;0" keyTimes="0;0.5;1" dur="4.4s" begin="3.8s" repeatCount="indefinite"/><animateTransform attributeName="transform" type="rotate" from="0" to="90" dur="4.4s" begin="3.8s" repeatCount="indefinite"/><path d="M0 -7 L1.6 -1.6 L7 0 L1.6 1.6 L0 7 L-1.6 1.6 L-7 0 L-1.6 -1.6 Z" fill="#F4B183"/></g></g>
<g transform="translate(840,230) scale(0.6)"><g opacity="0"><animate attributeName="opacity" values="0;0.8;0" keyTimes="0;0.5;1" dur="3.8s" begin="4.4s" repeatCount="indefinite"/><animateTransform attributeName="transform" type="rotate" from="0" to="90" dur="3.8s" begin="4.4s" repeatCount="indefinite"/><path d="M0 -7 L1.6 -1.6 L7 0 L1.6 1.6 L0 7 L-1.6 1.6 L-7 0 L-1.6 -1.6 Z" fill="#F4B183"/></g></g>
<g transform="translate(600,25) scale(0.7)"><g opacity="0"><animate attributeName="opacity" values="0;0.8;0" keyTimes="0;0.5;1" dur="4.2s" begin="5.0s" repeatCount="indefinite"/><animateTransform attributeName="transform" type="rotate" from="0" to="90" dur="4.2s" begin="5.0s" repeatCount="indefinite"/><path d="M0 -7 L1.6 -1.6 L7 0 L1.6 1.6 L0 7 L-1.6 1.6 L-7 0 L-1.6 -1.6 Z" fill="#F4B183"/></g></g>
<g opacity="0"><animate attributeName="opacity" values="0;0.95;0.95;0" keyTimes="0;0.04;0.96;1" dur="18s" begin="3.5s" repeatCount="indefinite"/><g><animateMotion dur="18s" begin="3.5s" repeatCount="indefinite" rotate="auto" path="M860 50 C700 130 560 10 430 80 C320 140 180 70 70 150 C150 240 360 190 540 250 C700 300 830 170 860 50"/><g><animateTransform attributeName="transform" type="scale" values="1 1;1 0.3;1 1" keyTimes="0;0.5;1" dur="0.5s" repeatCount="indefinite"/><path d="M1 -1 C 7 -15, -13 -17, -6 -2 Z" fill="#F4795B" opacity="0.9"/><path d="M-3 -1 C -7 -13, -17 -8, -9 -1 Z" fill="#FBC7B3" opacity="0.85"/><path d="M1 1 C 7 15, -13 17, -6 2 Z" fill="#F4795B" opacity="0.9"/><path d="M-3 1 C -7 13, -17 8, -9 1 Z" fill="#FBC7B3" opacity="0.85"/></g><ellipse rx="5.5" ry="1.8" fill="#A33D22"/><path d="M5 -1 Q 9 -5 11 -6 M5 1 Q 9 5 11 6" stroke="#A33D22" stroke-width="0.8" fill="none"/></g></g>
</svg>
