<svg xmlns="http://www.w3.org/2000/svg" viewBox="0 0 73 30" width="73" height="30" font-family="Segoe UI, Ubuntu, Helvetica, Arial, sans-serif"><title>Dify</title><g opacity="0"><animate attributeName="opacity" from="0" to="1" begin="0s" dur="0.5s" fill="freeze"/><g><animateTransform attributeName="transform" type="translate" values="0 1.2;0 -1.2;0 1.2" calcMode="spline" keySplines="0.4 0 0.6 1;0.4 0 0.6 1" keyTimes="0;0.5;1" dur="4.6s" begin="-1.2s" repeatCount="indefinite"/><rect x="1" y="4" width="71" height="22" rx="11" fill="#F4795B" fill-opacity="0.07" stroke="#F4795B" stroke-width="1.3"/><g transform="translate(12,8) scale(0.5833)"><path d="m22.417 9.334-1.333 4.333-1.334-4.333h-1.583L20.1 14.94c.2.583-.14 1.06-.756 1.06h-.678v1.334h.996c.869 0 1.65-.55 1.945-1.367L24 9.334ZM2.833 6.667H0v8.666h2.833c3.5 0 4.5-2 4.5-4.333s-1-4.334-4.5-4.334zM2.866 14H1.6V8h1.266c2.013 0 2.867.988 2.867 3s-.854 3-2.867 3m11-5.267v.6h-1.532v1.334h1.533V14h-2.534V9.334H8v1.334h1.867V14h-2.2v1.334h10V14h-2.332v-3.333h2.333V9.334h-2.333V8h2.333V6.667h-1.733a2.07 2.07 0 0 0-2.067 2.067Zm-3.266-.2c.681 0 .933-.417.933-.933 0-.515-.252-.933-.933-.933-.68 0-.934.418-.934.933s.253.934.934.934" fill="#F4795B"/></g><text x="32" y="19" font-size="12" font-weight="600" fill="#F4795B">Dify</text></g></g></svg>
