<svg xmlns="http://www.w3.org/2000/svg" viewBox="0 0 124 30" width="124" height="30" font-family="Segoe UI, Ubuntu, Helvetica, Arial, sans-serif"><title>Elasticsearch</title><g opacity="0"><animate attributeName="opacity" from="0" to="1" begin="0s" dur="0.5s" fill="freeze"/><g><animateTransform attributeName="transform" type="translate" values="0 1.2;0 -1.2;0 1.2" calcMode="spline" keySplines="0.4 0 0.6 1;0.4 0 0.6 1" keyTimes="0;0.5;1" dur="3.5s" begin="-0.9s" repeatCount="indefinite"/><rect x="1" y="4" width="122" height="22" rx="11" fill="#7FA36B" fill-opacity="0.07" stroke="#7FA36B" stroke-width="1.3"/><g transform="translate(12,8) scale(0.5833)"><path d="M13.394 0C8.683 0 4.609 2.716 2.644 6.667h15.641a4.77 4.77 0 0 0 3.073-1.11c.446-.375.864-.785 1.247-1.243l.001-.002A11.974 11.974 0 0 0 13.394 0zM1.804 8.889a12.009 12.009 0 0 0 0 6.222h14.7a3.111 3.111 0 1 0 0-6.222zm.84 8.444C4.61 21.283 8.684 24 13.395 24c3.701 0 7.011-1.677 9.212-4.312l-.001-.002a9.958 9.958 0 0 0-1.247-1.243 4.77 4.77 0 0 0-3.073-1.11z" fill="#7FA36B"/></g><text x="32" y="19" font-size="12" font-weight="600" fill="#7FA36B">Elasticsearch</text></g></g></svg>
