<svg xmlns="http://www.w3.org/2000/svg" viewBox="0 0 87 30" width="87" height="30" font-family="Segoe UI, Ubuntu, Helvetica, Arial, sans-serif"><title>Gemini</title><g opacity="0"><animate attributeName="opacity" from="0" to="1" begin="0s" dur="0.5s" fill="freeze"/><g><animateTransform attributeName="transform" type="translate" values="0 1.2;0 -1.2;0 1.2" calcMode="spline" keySplines="0.4 0 0.6 1;0.4 0 0.6 1" keyTimes="0;0.5;1" dur="4.2s" begin="-0.3s" repeatCount="indefinite"/><rect x="1" y="4" width="85" height="22" rx="11" fill="#F4795B" fill-opacity="0.07" stroke="#F4795B" stroke-width="1.3"/><g transform="translate(12,8) scale(0.5833)"><path d="M11.04 19.32Q12 21.51 12 24q0-2.49.93-4.68.96-2.19 2.58-3.81t3.81-2.55Q21.51 12 24 12q-2.49 0-4.68-.93a12.3 12.3 0 0 1-3.81-2.58 12.3 12.3 0 0 1-2.58-3.81Q12 2.49 12 0q0 2.49-.96 4.68-.93 2.19-2.55 3.81a12.3 12.3 0 0 1-3.81 2.58Q2.49 12 0 12q2.49 0 4.68.96 2.19.93 3.81 2.55t2.55 3.81" fill="#F4795B"/></g><text x="32" y="19" font-size="12" font-weight="600" fill="#F4795B">Gemini</text></g></g></svg>
