<svg xmlns="http://www.w3.org/2000/svg" viewBox="0 0 860 420" width="860" height="420" font-family="Segoe UI, Ubuntu, Helvetica, Arial, sans-serif">
<title>INFERENCE field guide</title>
<rect x="1" y="1" width="858" height="418" rx="14" fill="#F4795B" fill-opacity="0.04" stroke="#F4795B" stroke-opacity="0.35" stroke-width="1.2"/>
<g transform="translate(30,26)">
<g><animateTransform attributeName="transform" type="rotate" from="0" to="360" dur="20s" repeatCount="indefinite"/><circle cx="0" cy="-6.5" r="3.4" fill="#F4795B"/><circle cx="6.2" cy="-2" r="3.4" fill="#F4795B"/><circle cx="3.8" cy="5.3" r="3.4" fill="#F4795B"/><circle cx="-3.8" cy="5.3" r="3.4" fill="#F4795B"/><circle cx="-6.2" cy="-2" r="3.4" fill="#F4795B"/></g><circle r="2.8" fill="#E2542F"/></g>
<text x="48" y="30" font-size="11" letter-spacing="2" fill="#8b949e">INFERENCE</text>
<g opacity="0"><animate attributeName="opacity" from="0" to="1" begin="0.15s" dur="0.5s" fill="freeze"/><g transform="translate(38,50) scale(0.8)"><path d="M16.361 10.26a.894.894 0 0 0-.558.47l-.072.148.001.207c0 .193.004.217.059.353.076.193.152.312.291.448.24.238.51.3.872.205a.86.86 0 0 0 .517-.436.752.752 0 0 0 .08-.498c-.064-.453-.33-.782-.724-.897a1.06 1.06 0 0 0-.466 0zm-9.203.005c-.305.096-.533.32-.65.639a1.187 1.187 0 0 0-.06.52c.057.309.31.59.598.667.362.095.632.033.872-.205.14-.136.215-.255.291-.448.055-.136.059-.16.059-.353l.001-.207-.072-.148a.894.894 0 0 0-.565-.472 1.02 1.02 0 0 0-.474.007Zm4.184 2c-.131.071-.223.25-.195.383.031.143.157.288.353.407.105.063.112.072.117.136.004.038-.01.146-.029.243-.02.094-.036.194-.036.222.002.074.07.195.143.253.064.052.076.054.255.059.164.005.198.001.264-.03.169-.082.212-.234.15-.525-.052-.243-.042-.28.087-.355.137-.08.281-.219.324-.314a.365.365 0 0 0-.175-.48.394.394 0 0 0-.181-.033c-.126 0-.207.03-.355.124l-.085.053-.053-.032c-.219-.13-.259-.145-.391-.143a.396.396 0 0 0-.193.032zm.39-2.195c-.373.036-.475.05-.654.086-.291.06-.68.195-.951.328-.94.46-1.589 1.226-1.787 2.114-.04.176-.045.234-.045.53 0 .294.005.357.043.524.264 1.16 1.332 2.017 2.714 2.173.3.033 1.596.033 1.896 0 1.11-.125 2.064-.727 2.493-1.571.114-.226.169-.372.22-.602.039-.167.044-.23.044-.523 0-.297-.005-.355-.045-.531-.288-1.29-1.539-2.304-3.072-2.497a6.873 6.873 0 0 0-.855-.031zm.645.937a3.283 3.283 0 0 1 1.44.514c.223.148.537.458.671.662.166.251.26.508.303.82.02.143.01.251-.043.482-.08.345-.332.705-.672.957a3.115 3.115 0 0 1-.689.348c-.382.122-.632.144-1.525.138-.582-.006-.686-.01-.853-.042-.57-.107-1.022-.334-1.35-.68-.264-.28-.385-.535-.45-.946-.03-.192.025-.509.137-.776.136-.326.488-.73.836-.963.403-.269.934-.46 1.422-.512.187-.02.586-.02.773-.002zm-5.503-11a1.653 1.653 0 0 0-.683.298C5.617.74 5.173 1.666 4.985 2.819c-.07.436-.119 1.04-.119 1.503 0 .544.064 1.24.155 1.721.02.107.031.202.023.208a8.12 8.12 0 0 1-.187.152 5.324 5.324 0 0 0-.949 1.02 5.49 5.49 0 0 0-.94 2.339 6.625 6.625 0 0 0-.023 1.357c.091.78.325 1.438.727 2.04l.13.195-.037.064c-.269.452-.498 1.105-.605 1.732-.084.496-.095.629-.095 1.294 0 .67.009.803.088 1.266.095.555.288 1.143.503 1.534.071.128.243.393.264.407.007.003-.014.067-.046.141a7.405 7.405 0 0 0-.548 1.873c-.062.417-.071.552-.071.991 0 .56.031.832.148 1.279L3.42 24h1.478l-.05-.091c-.297-.552-.325-1.575-.068-2.597.117-.472.25-.819.498-1.296l.148-.29v-.177c0-.165-.003-.184-.057-.293a.915.915 0 0 0-.194-.25 1.74 1.74 0 0 1-.385-.543c-.424-.92-.506-2.286-.208-3.451.124-.486.329-.918.544-1.154a.787.787 0 0 0 .223-.531c0-.195-.07-.355-.224-.522a3.136 3.136 0 0 1-.817-1.729c-.14-.96.114-2.005.69-2.834.563-.814 1.353-1.336 2.237-1.475.199-.033.57-.028.776.01.226.04.367.028.512-.041.179-.085.268-.19.374-.431.093-.215.165-.333.36-.576.234-.29.46-.489.822-.729.413-.27.884-.467 1.352-.561.17-.035.25-.04.569-.04.319 0 .398.005.569.04a4.07 4.07 0 0 1 1.914.997c.117.109.398.457.488.602.034.057.095.177.132.267.105.241.195.346.374.43.14.068.286.082.503.045.343-.058.607-.053.943.016 1.144.23 2.14 1.173 2.581 2.437.385 1.108.276 2.267-.296 3.153-.097.15-.193.27-.333.419-.301.322-.301.722-.001 1.053.493.539.801 1.866.708 3.036-.062.772-.26 1.463-.533 1.854a2.096 2.096 0 0 1-.224.258.916.916 0 0 0-.194.25c-.054.109-.057.128-.057.293v.178l.148.29c.248.476.38.823.498 1.295.253 1.008.231 2.01-.059 2.581a.845.845 0 0 0-.044.098c0 .006.329.009.732.009h.73l.02-.074.036-.134c.019-.076.057-.3.088-.516.029-.217.029-1.016 0-1.258-.11-.875-.295-1.57-.597-2.226-.032-.074-.053-.138-.046-.141.008-.005.057-.074.108-.152.376-.569.607-1.284.724-2.228.031-.26.031-1.378 0-1.628-.083-.645-.182-1.082-.348-1.525a6.083 6.083 0 0 0-.329-.7l-.038-.064.131-.194c.402-.604.636-1.262.727-2.04a6.625 6.625 0 0 0-.024-1.358 5.512 5.512 0 0 0-.939-2.339 5.325 5.325 0 0 0-.95-1.02 8.097 8.097 0 0 1-.186-.152.692.692 0 0 1 .023-.208c.208-1.087.201-2.443-.017-3.503-.19-.924-.535-1.658-.98-2.082-.354-.338-.716-.482-1.15-.455-.996.059-1.8 1.205-2.116 3.01a6.805 6.805 0 0 0-.097.726c0 .036-.007.066-.015.066a.96.96 0 0 1-.149-.078A4.857 4.857 0 0 0 12 3.03c-.832 0-1.687.243-2.456.698a.958.958 0 0 1-.148.078c-.008 0-.015-.03-.015-.066a6.71 6.71 0 0 0-.097-.725C8.997 1.392 8.337.319 7.46.048a2.096 2.096 0 0 0-.585-.041Zm.293 1.402c.248.197.523.759.682 1.388.03.113.06.244.069.292.007.047.026.152.041.233.067.365.098.76.102 1.24l.002.475-.12.175-.118.178h-.278c-.324 0-.646.041-.954.124l-.238.06c-.033.007-.038-.003-.057-.144a8.438 8.438 0 0 1 .016-2.323c.124-.788.413-1.501.696-1.711.067-.05.079-.049.157.013zm9.825-.012c.17.126.358.46.498.888.28.854.36 2.028.212 3.145-.019.14-.024.151-.057.144l-.238-.06a3.693 3.693 0 0 0-.954-.124h-.278l-.119-.178-.119-.175.002-.474c.004-.669.066-1.19.214-1.772.157-.623.434-1.185.68-1.382.078-.062.09-.063.159-.012z" fill="#E2542F"/></g><text x="76" y="58" font-size="13" font-weight="700" fill="#E2542F">Ollama</text><text x="76" y="75" font-size="12" fill="#8b949e">Runs LLMs locally with a single command: GGUF quantized models served behind an OpenAI-compatible API, on</text><text x="76" y="91" font-size="12" fill="#8b949e">laptop-class hardware.</text><path d="M76 98 H 820" stroke="#E2542F" stroke-opacity="0.15" stroke-width="1"/></g>
<g opacity="0"><animate attributeName="opacity" from="0" to="1" begin="0.24s" dur="0.5s" fill="freeze"/><g transform="translate(38,112) scale(0.8)"><path d="m23.6 0-8.721 4.59L9.829 24h7.41zM9.83 24V5.142H.4Z" fill="#F4795B"/></g><text x="76" y="120" font-size="13" font-weight="700" fill="#F4795B">vLLM</text><text x="76" y="137" font-size="12" fill="#8b949e">High-throughput inference engine built on PagedAttention and continuous batching — the de-facto standard for</text><text x="76" y="153" font-size="12" fill="#8b949e">serving open models in production 🚀</text><path d="M76 160 H 820" stroke="#F4795B" stroke-opacity="0.15" stroke-width="1"/></g>
<g opacity="0"><animate attributeName="opacity" from="0" to="1" begin="0.33s" dur="0.5s" fill="freeze"/><g transform="translate(38,174) scale(0.8)"><path d="M12.025 1.13c-5.77 0-10.449 4.647-10.449 10.378 0 1.112.178 2.181.503 3.185.064-.222.203-.444.416-.577a.96.96 0 0 1 .524-.15c.293 0 .584.124.84.284.278.173.48.408.71.694.226.282.458.611.684.951v-.014c.017-.324.106-.622.264-.874s.403-.487.762-.543c.3-.047.596.06.787.203s.31.313.4.467c.15.257.212.468.233.542.01.026.653 1.552 1.657 2.54.616.605 1.01 1.223 1.082 1.912.055.537-.096 1.059-.38 1.572.637.121 1.294.187 1.967.187.657 0 1.298-.063 1.921-.178-.287-.517-.44-1.041-.384-1.581.07-.69.465-1.307 1.081-1.913 1.004-.987 1.647-2.513 1.657-2.539.021-.074.083-.285.233-.542.09-.154.208-.323.4-.467a1.08 1.08 0 0 1 .787-.203c.359.056.604.29.762.543s.247.55.265.874v.015c.225-.34.457-.67.683-.952.23-.286.432-.52.71-.694.257-.16.547-.284.84-.285a.97.97 0 0 1 .524.151c.228.143.373.388.43.625l.006.04a10.3 10.3 0 0 0 .534-3.273c0-5.731-4.678-10.378-10.449-10.378M8.327 6.583a1.5 1.5 0 0 1 .713.174 1.487 1.487 0 0 1 .617 2.013c-.183.343-.762-.214-1.102-.094-.38.134-.532.914-.917.71a1.487 1.487 0 0 1 .69-2.803m7.486 0a1.487 1.487 0 0 1 .689 2.803c-.385.204-.536-.576-.916-.71-.34-.12-.92.437-1.103.094a1.487 1.487 0 0 1 .617-2.013 1.5 1.5 0 0 1 .713-.174m-10.68 1.55a.96.96 0 1 1 0 1.921.96.96 0 0 1 0-1.92m13.838 0a.96.96 0 1 1 0 1.92.96.96 0 0 1 0-1.92M8.489 11.458c.588.01 1.965 1.157 3.572 1.164 1.607-.007 2.984-1.155 3.572-1.164.196-.003.305.12.305.454 0 .886-.424 2.328-1.563 3.202-.22-.756-1.396-1.366-1.63-1.32q-.011.001-.02.006l-.044.026-.01.008-.03.024q-.018.017-.035.036l-.032.04a1 1 0 0 0-.058.09l-.014.025q-.049.088-.11.19a1 1 0 0 1-.083.116 1.2 1.2 0 0 1-.173.18q-.035.029-.075.058a1.3 1.3 0 0 1-.251-.243 1 1 0 0 1-.076-.107c-.124-.193-.177-.363-.337-.444-.034-.016-.104-.008-.2.022q-.094.03-.216.087-.06.028-.125.063l-.13.074q-.067.04-.136.086a3 3 0 0 0-.135.096 3 3 0 0 0-.26.219 2 2 0 0 0-.12.121 2 2 0 0 0-.106.128l-.002.002a2 2 0 0 0-.09.132l-.001.001a1.2 1.2 0 0 0-.105.212q-.013.036-.024.073c-1.139-.875-1.563-2.317-1.563-3.203 0-.334.109-.457.305-.454m.836 10.354c.824-1.19.766-2.082-.365-3.194-1.13-1.112-1.789-2.738-1.789-2.738s-.246-.945-.806-.858-.97 1.499.202 2.362c1.173.864-.233 1.45-.685.64-.45-.812-1.683-2.896-2.322-3.295s-1.089-.175-.938.647 2.822 2.813 2.562 3.244-1.176-.506-1.176-.506-2.866-2.567-3.49-1.898.473 1.23 2.037 2.16c1.564.932 1.686 1.178 1.464 1.53s-3.675-2.511-4-1.297c-.323 1.214 3.524 1.567 3.287 2.405-.238.839-2.71-1.587-3.216-.642-.506.946 3.49 2.056 3.522 2.064 1.29.33 4.568 1.028 5.713-.624m5.349 0c-.824-1.19-.766-2.082.365-3.194 1.13-1.112 1.789-2.738 1.789-2.738s.246-.945.806-.858.97 1.499-.202 2.362c-1.173.864.233 1.45.685.64.451-.812 1.683-2.896 2.322-3.295s1.089-.175.938.647-2.822 2.813-2.562 3.244 1.176-.506 1.176-.506 2.866-2.567 3.49-1.898-.473 1.23-2.037 2.16c-1.564.932-1.686 1.178-1.464 1.53s3.675-2.511 4-1.297c.323 1.214-3.524 1.567-3.287 2.405.238.839 2.71-1.587 3.216-.642.506.946-3.49 2.056-3.522 2.064-1.29.33-4.568 1.028-5.713-.624" fill="#ED8B66"/></g><text x="76" y="182" font-size="13" font-weight="700" fill="#ED8B66">Hugging Face</text><text x="76" y="199" font-size="12" fill="#8b949e">The GitHub of machine learning: model hub, datasets, Spaces demos, and the transformers library that</text><text x="76" y="215" font-size="12" fill="#8b949e">standardized how models are loaded 🤗</text><path d="M76 222 H 820" stroke="#ED8B66" stroke-opacity="0.15" stroke-width="1"/></g>
<g opacity="0"><animate attributeName="opacity" from="0" to="1" begin="0.42s" dur="0.5s" fill="freeze"/><g transform="translate(38,236) scale(0.8)"><path d="M16.778 1.844v1.919q-.569-.026-1.138-.032-.708-.008-1.415.037c-1.93.126-4.023.728-6.149 2.237-2.911 2.066-2.731 1.95-4.14 2.75-.396.223-1.342.574-2.185.798-.841.225-1.753.333-1.751.333v4.229s.768.108 1.61.333c.842.224 1.789.575 2.185.799 1.41.798 1.228.683 4.14 2.75 2.126 1.509 4.22 2.11 6.148 2.236.88.058 1.716.041 2.555.005v1.918l7.222-4.168-7.222-4.17v2.176c-.86.038-1.611.065-2.278.021-1.364-.09-2.417-.357-3.979-1.465-2.244-1.593-2.866-2.027-3.68-2.508.889-.518 1.449-.906 3.822-2.59 1.56-1.109 2.614-1.377 3.978-1.466.667-.044 1.418-.017 2.278.02v2.176L24 6.014Z" fill="#7FA36B"/></g><text x="76" y="244" font-size="13" font-weight="700" fill="#7FA36B">OpenRouter</text><text x="76" y="261" font-size="12" fill="#8b949e">One API key, every model: a unified gateway that routes OpenAI-style requests to 300+ commercial and open</text><text x="76" y="277" font-size="12" fill="#8b949e">models with automatic failover.</text><path d="M76 284 H 820" stroke="#7FA36B" stroke-opacity="0.15" stroke-width="1"/></g>
<g opacity="0"><animate attributeName="opacity" from="0" to="1" begin="0.51s" dur="0.5s" fill="freeze"/><g transform="translate(38,298) scale(0.8)"><path d="M 12 1.527 A 1.532 1.532 0 0 0 11.24 1.73 L 0.7695 7.732 A 1.532 1.532 0 0 0 0 9.021 L 0 9.109 A 1.532 1.532 0 0 0 0.7695 10.4 L 3.57 12 L 0.7695 13.61 C 0.256 13.9 0 14.42 0 14.94 C 0 15.45 0.256 15.97 0.7695 16.26 L 11.24 22.27 C 11.71 22.54 12.29 22.54 12.76 22.27 L 23.23 16.26 C 23.73 15.98 23.99 15.48 24 14.97 L 24 14.9 C 23.99 14.4 23.73 13.89 23.23 13.61 L 20.42 12 L 23.23 10.4 A 1.532 1.532 0 0 0 24 9.223 L 24 8.91 A 1.532 1.532 0 0 0 23.23 7.732 L 12.76 1.73 A 1.532 1.532 0 0 0 12 1.527 z M 12 4.826 L 19.39 9.061 L 17.34 10.24 L 12.76 7.602 C 12.53 7.47 12.27 7.398 12 7.398 C 11.73 7.398 11.47 7.469 11.24 7.602 L 6.652 10.24 L 4.613 9.061 L 12 4.826 z M 12 10.7 L 14.27 12 L 12 13.3 L 9.734 12 L 12 10.7 z M 6.652 13.77 L 11.24 16.39 A 1.532 1.532 0 0 0 12.76 16.39 L 17.34 13.77 L 19.39 14.94 L 12 19.17 L 4.613 14.94 L 6.652 13.77 z" fill="#E2542F"/></g><text x="76" y="306" font-size="13" font-weight="700" fill="#E2542F">Gradio</text><text x="76" y="323" font-size="12" fill="#8b949e">Turn any Python function or model into a shareable web UI in a few lines — the interface layer behind most</text><text x="76" y="339" font-size="12" fill="#8b949e">Hugging Face Spaces demos.</text><path d="M76 346 H 820" stroke="#E2542F" stroke-opacity="0.15" stroke-width="1"/></g>
<g opacity="0"><animate attributeName="opacity" from="0" to="1" begin="0.60s" dur="0.5s" fill="freeze"/><g transform="translate(38,360) scale(0.8)"><path d="M16.673 11.32l6.862-3.618c.233-.136.554.12.442.387L20.463 17.1zm-8.556-.229l3.473-5.187c.203-.328.578-.316.793-.028l7.886 11.75zm-3.375 7.25c-.28 0-.835-.284-.993-.716l-3.72-9.46c-.118-.331.139-.614.48-.464l19.474 10.306c-.149.147-.453.337-.72.334z" fill="#F4795B"/></g><text x="76" y="368" font-size="13" font-weight="700" fill="#F4795B">Streamlit</text><text x="76" y="385" font-size="12" fill="#8b949e">Write a Python script, get a data app: reactive rerun model, built-in widgets and charts, zero frontend code</text><text x="76" y="401" font-size="12" fill="#8b949e">required.</text></g>
</svg>
