<svg xmlns="http://www.w3.org/2000/svg" viewBox="0 0 860 358" width="860" height="358" font-family="Segoe UI, Ubuntu, Helvetica, Arial, sans-serif">
<title>RAG / DATA field guide</title>
<rect x="1" y="1" width="858" height="356" rx="14" fill="#F4795B" fill-opacity="0.04" stroke="#F4795B" stroke-opacity="0.35" stroke-width="1.2"/>
<g transform="translate(30,26)">
<g><animateTransform attributeName="transform" type="rotate" from="0" to="360" dur="22s" repeatCount="indefinite"/><circle cx="0" cy="-6.5" r="3.4" fill="#F4795B"/><circle cx="6.2" cy="-2" r="3.4" fill="#F4795B"/><circle cx="3.8" cy="5.3" r="3.4" fill="#F4795B"/><circle cx="-3.8" cy="5.3" r="3.4" fill="#F4795B"/><circle cx="-6.2" cy="-2" r="3.4" fill="#F4795B"/></g><circle r="2.8" fill="#E2542F"/></g>
<text x="48" y="30" font-size="11" letter-spacing="2" fill="#8b949e">RAG / DATA</text>
<g opacity="0"><animate attributeName="opacity" from="0" to="1" begin="0.15s" dur="0.5s" fill="freeze"/><g transform="translate(38,50) scale(0.8)"><path d="m12 16.5 3.897-2.25v-4.5L12 7.5 8.103 9.75v4.5zM1.607 18 12 24l3.897-2.25v-4.5L12 19.5l-6.495-3.75v-7.5L12 4.5l6.495 3.75v15L22.393 21V6L12 0 1.607 6Z" fill="#E2542F"/></g><text x="76" y="58" font-size="13" font-weight="700" fill="#E2542F">Qdrant</text><text x="76" y="75" font-size="12" fill="#8b949e">Rust-built vector database for semantic search: HNSW indexing, rich payload filtering and hybrid</text><text x="76" y="91" font-size="12" fill="#8b949e">dense+sparse retrieval over embeddings.</text><path d="M76 98 H 820" stroke="#E2542F" stroke-opacity="0.15" stroke-width="1"/></g>
<g opacity="0"><animate attributeName="opacity" from="0" to="1" begin="0.24s" dur="0.5s" fill="freeze"/><g transform="translate(38,112) scale(0.8)"><path d="M15.536 11.997a4.005 4.005 0 0 1-4.015 4.018c-2.36-.005-4.05-1.954-4.01-4.08a4.013 4.013 0 0 1 8.025.061zm8.463-.04a.823.823 0 0 1-.25.616q-1.122 1.128-2.248 2.25c-.082.083-.165.1-.25.054-.091-.048-.124-.121-.098-.242a12.764 12.764 0 0 0 .25-1.626 12.153 12.153 0 0 0 .028-1.49 11.56 11.56 0 0 0-.27-2.114.255.255 0 0 1 .017-.213.194.194 0 0 1 .273-.052.628.628 0 0 1 .086.075l2.174 2.174c.171.17.29.366.289.567zM11.226 20c-1.89-.002-3.488-.565-4.926-1.611a8.317 8.317 0 0 1-.952-.816q-1.125-1.112-2.253-2.221l-1.931-1.899c-.291-.285-.583-.57-.873-.857-.393-.39-.387-.83.012-1.217.296-.288.59-.579.885-.868q1.433-1.41 2.867-2.818c.532-.522 1.057-1.051 1.604-1.555a7.996 7.996 0 0 1 3.786-1.95A7.668 7.668 0 0 1 11.135 4c1.89.015 3.612.546 5.113 1.723a7.987 7.987 0 0 1 2.282 2.77 7.567 7.567 0 0 1 .76 2.556c.255 2.404-.414 4.518-2.046 6.312a7.772 7.772 0 0 1-3.927 2.366 8.995 8.995 0 0 1-2.091.274zm.364-2.137a5.819 5.819 0 0 0 .605-.036 5.35 5.35 0 0 0 .38-.05c1.525-.28 2.76-1.051 3.704-2.263.92-1.178 1.28-2.542 1.168-4.028a5.626 5.626 0 0 0-.631-2.168c-.627-1.213-1.596-2.067-2.817-2.646-1.096-.519-2.248-.649-3.443-.464A5.814 5.814 0 0 0 7.33 7.8c-.858.83-1.707 1.669-2.56 2.504-.426.419-.85.841-1.28 1.257-.274.266-.286.588-.013.857q.804.793 1.61 1.583c.722.709 1.44 1.42 2.165 2.126 1.184 1.153 2.604 1.737 4.339 1.738z" fill="#F4795B"/></g><text x="76" y="120" font-size="13" font-weight="700" fill="#F4795B">Milvus</text><text x="76" y="137" font-size="12" fill="#8b949e">Cloud-native distributed vector database designed for billion-scale similarity search, with GPU-accelerated</text><text x="76" y="153" font-size="12" fill="#8b949e">index options.</text><path d="M76 160 H 820" stroke="#F4795B" stroke-opacity="0.15" stroke-width="1"/></g>
<g opacity="0"><animate attributeName="opacity" from="0" to="1" begin="0.33s" dur="0.5s" fill="freeze"/><g transform="translate(38,174) scale(0.8)"><path d="M23.5594 14.7228a.5269.5269 0 0 0-.0563-.1191c-.139-.2632-.4768-.3418-1.0074-.2321-1.6533.3411-2.2935.1312-2.5256-.0191 1.342-2.0482 2.445-4.522 3.0411-6.8297.2714-1.0507.7982-3.5237.1222-4.7316a1.5641 1.5641 0 0 0-.1509-.235C21.6931.9086 19.8007.0248 17.5099.0005c-1.4947-.0158-2.7705.3461-3.1161.4794a9.449 9.449 0 0 0-.5159-.0816 8.044 8.044 0 0 0-1.3114-.1278c-1.1822-.0184-2.2038.2642-3.0498.8406-.8573-.3211-4.7888-1.645-7.2219.0788C.9359 2.1526.3086 3.8733.4302 6.3043c.0409.818.5069 3.334 1.2423 5.7436.4598 1.5065.9387 2.7019 1.4334 3.582.553.9942 1.1259 1.5933 1.7143 1.7895.4474.1491 1.1327.1441 1.8581-.7279.8012-.9635 1.5903-1.8258 1.9446-2.2069.4351.2355.9064.3625 1.39.3772a.0569.0569 0 0 0 .0004.0041 11.0312 11.0312 0 0 0-.2472.3054c-.3389.4302-.4094.5197-1.5002.7443-.3102.064-1.1344.2339-1.1464.8115-.0025.1224.0329.2309.0919.3268.2269.4231.9216.6097 1.015.6331 1.3345.3335 2.5044.092 3.3714-.6787-.017 2.231.0775 4.4174.3454 5.0874.2212.5529.7618 1.9045 2.4692 1.9043.2505 0 .5263-.0291.8296-.0941 1.7819-.3821 2.5557-1.1696 2.855-2.9059.1503-.8707.4016-2.8753.5388-4.1012.0169-.0703.0357-.1207.057-.1362.0007-.0005.0697-.0471.4272.0307a.3673.3673 0 0 0 .0443.0068l.2539.0223.0149.001c.8468.0384 1.9114-.1426 2.5312-.4308.6438-.2988 1.8057-1.0323 1.5951-1.6698zM2.371 11.8765c-.7435-2.4358-1.1779-4.8851-1.2123-5.5719-.1086-2.1714.4171-3.6829 1.5623-4.4927 1.8367-1.2986 4.8398-.5408 6.108-.13-.0032.0032-.0066.0061-.0098.0094-2.0238 2.044-1.9758 5.536-1.9708 5.7495-.0002.0823.0066.1989.0162.3593.0348.5873.0996 1.6804-.0735 2.9184-.1609 1.1504.1937 2.2764.9728 3.0892.0806.0841.1648.1631.2518.2374-.3468.3714-1.1004 1.1926-1.9025 2.1576-.5677.6825-.9597.5517-1.0886.5087-.3919-.1307-.813-.5871-1.2381-1.3223-.4796-.839-.9635-2.0317-1.4155-3.5126zm6.0072 5.0871c-.1711-.0428-.3271-.1132-.4322-.1772.0889-.0394.2374-.0902.4833-.1409 1.2833-.2641 1.4815-.4506 1.9143-1.0002.0992-.126.2116-.2687.3673-.4426a.3549.3549 0 0 0 .0737-.1298c.1708-.1513.2724-.1099.4369-.0417.156.0646.3078.26.3695.4752.0291.1016.0619.2945-.0452.4444-.9043 1.2658-2.2216 1.2494-3.1676 1.0128zm2.094-3.988-.0525.141c-.133.3566-.2567.6881-.3334 1.003-.6674-.0021-1.3168-.2872-1.8105-.8024-.6279-.6551-.9131-1.5664-.7825-2.5004.1828-1.3079.1153-2.4468.079-3.0586-.005-.0857-.0095-.1607-.0122-.2199.2957-.2621 1.6659-.9962 2.6429-.7724.4459.1022.7176.4057.8305.928.5846 2.7038.0774 3.8307-.3302 4.7363-.084.1866-.1633.3629-.2311.5454zm7.3637 4.5725c-.0169.1768-.0358.376-.0618.5959l-.146.4383a.3547.3547 0 0 0-.0182.1077c-.0059.4747-.054.6489-.115.8693-.0634.2292-.1353.4891-.1794 1.0575-.11 1.4143-.8782 2.2267-2.4172 2.5565-1.5155.3251-1.7843-.4968-2.0212-1.2217a6.5824 6.5824 0 0 0-.0769-.2266c-.2154-.5858-.1911-1.4119-.1574-2.5551.0165-.5612-.0249-1.9013-.3302-2.6462.0044-.2932.0106-.5909.019-.8918a.3529.3529 0 0 0-.0153-.1126 1.4927 1.4927 0 0 0-.0439-.208c-.1226-.4283-.4213-.7866-.7797-.9351-.1424-.059-.4038-.1672-.7178-.0869.067-.276.1831-.5875.309-.9249l.0529-.142c.0595-.16.134-.3257.213-.5012.4265-.9476 1.0106-2.2453.3766-5.1772-.2374-1.0981-1.0304-1.6343-2.2324-1.5098-.7207.0746-1.3799.3654-1.7088.5321a5.6716 5.6716 0 0 0-.1958.1041c.0918-1.1064.4386-3.1741 1.7357-4.4823a4.0306 4.0306 0 0 1 .3033-.276.3532.3532 0 0 0 .1447-.0644c.7524-.5706 1.6945-.8506 2.802-.8325.4091.0067.8017.0339 1.1742.081 1.939.3544 3.2439 1.4468 4.0359 2.3827.8143.9623 1.2552 1.9315 1.4312 2.4543-1.3232-.1346-2.2234.1268-2.6797.779-.9926 1.4189.543 4.1729 1.2811 5.4964.1353.2426.2522.4522.2889.5413.2403.5825.5515.9713.7787 1.2552.0696.087.1372.1714.1885.245-.4008.1155-1.1208.3825-1.0552 1.717-.0123.1563-.0423.4469-.0834.8148-.0461.2077-.0702.4603-.0994.7662zm.8905-1.6211c-.0405-.8316.2691-.9185.5967-1.0105a2.8566 2.8566 0 0 0 .135-.0406 1.202 1.202 0 0 0 .1342.103c.5703.3765 1.5823.4213 3.0068.1344-.2016.1769-.5189.3994-.9533.6011-.4098.1903-1.0957.333-1.7473.3636-.7197.0336-1.0859-.0807-1.1721-.151zm.5695-9.2712c-.0059.3508-.0542.6692-.1054 1.0017-.055.3576-.112.7274-.1264 1.1762-.0142.4368.0404.8909.0932 1.3301.1066.887.216 1.8003-.2075 2.7014a3.5272 3.5272 0 0 1-.1876-.3856c-.0527-.1276-.1669-.3326-.3251-.6162-.6156-1.1041-2.0574-3.6896-1.3193-4.7446.3795-.5427 1.3408-.5661 2.1781-.463zm.2284 7.0137a12.3762 12.3762 0 0 0-.0853-.1074l-.0355-.0444c.7262-1.1995.5842-2.3862.4578-3.4385-.0519-.4318-.1009-.8396-.0885-1.2226.0129-.4061.0666-.7543.1185-1.0911.0639-.415.1288-.8443.1109-1.3505.0134-.0531.0188-.1158.0118-.1902-.0457-.4855-.5999-1.938-1.7294-3.253-.6076-.7073-1.4896-1.4972-2.6889-2.0395.5251-.1066 1.2328-.2035 2.0244-.1859 2.0515.0456 3.6746.8135 4.8242 2.2824a.908.908 0 0 1 .0667.1002c.7231 1.3556-.2762 6.2751-2.9867 10.5405zm-8.8166-6.1162c-.025.1794-.3089.4225-.6211.4225a.5821.5821 0 0 1-.0809-.0056c-.1873-.026-.3765-.144-.5059-.3156-.0458-.0605-.1203-.178-.1055-.2844.0055-.0401.0261-.0985.0925-.1488.1182-.0894.3518-.1226.6096-.0867.3163.0441.6426.1938.6113.4186zm7.9305-.4114c.0111.0792-.049.201-.1531.3102-.0683.0717-.212.1961-.4079.2232a.5456.5456 0 0 1-.075.0052c-.2935 0-.5414-.2344-.5607-.3717-.024-.1765.2641-.3106.5611-.352.297-.0414.6111.0088.6356.1851z" fill="#ED8B66"/></g><text x="76" y="182" font-size="13" font-weight="700" fill="#ED8B66">pgvector</text><text x="76" y="199" font-size="12" fill="#8b949e">Postgres extension adding vector columns, distance operators and ANN indexes — RAG memory without leaving</text><text x="76" y="215" font-size="12" fill="#8b949e">your relational database.</text><path d="M76 222 H 820" stroke="#ED8B66" stroke-opacity="0.15" stroke-width="1"/></g>
<g opacity="0"><animate attributeName="opacity" from="0" to="1" begin="0.42s" dur="0.5s" fill="freeze"/><g transform="translate(38,236) scale(0.8)"><path d="M22.71 13.145c-1.66 2.092-3.452 4.483-7.038 4.483-3.203 0-4.397-2.825-4.48-5.12.701 1.484 2.073 2.685 4.214 2.63 4.117-.133 6.94-3.852 6.94-7.239 0-4.05-3.022-6.972-8.268-6.972-3.752 0-8.4 1.428-11.455 3.685C2.59 6.937 3.885 9.958 4.35 9.626c2.648-1.904 4.748-3.13 6.784-3.744C8.12 9.244.886 17.05 0 18.425c.1 1.261 1.66 4.648 2.424 4.648.232 0 .431-.133.664-.365a100.49 100.49 0 0 0 5.54-6.765c.222 3.104 1.748 6.898 6.014 6.898 3.819 0 7.604-2.756 9.33-8.965.2-.764-.73-1.361-1.261-.73zm-4.349-5.013c0 1.959-1.926 2.922-3.685 2.922-.941 0-1.664-.247-2.235-.568 1.051-1.592 2.092-3.225 3.21-4.973 1.972.334 2.71 1.43 2.71 2.619z" fill="#7FA36B"/></g><text x="76" y="244" font-size="13" font-weight="700" fill="#7FA36B">Redis</text><text x="76" y="261" font-size="12" fill="#8b949e">In-memory data store serving as cache, queue and session store; sub-millisecond reads make it the classic</text><text x="76" y="277" font-size="12" fill="#8b949e">hot path of LLM apps ⚡</text><path d="M76 284 H 820" stroke="#7FA36B" stroke-opacity="0.15" stroke-width="1"/></g>
<g opacity="0"><animate attributeName="opacity" from="0" to="1" begin="0.51s" dur="0.5s" fill="freeze"/><g transform="translate(38,298) scale(0.8)"><path d="M11.9 1.036c-.015-.986-1.26-1.41-1.874-.637L.764 12.05C-.33 13.427.65 15.455 2.409 15.455h9.579l.113 7.51c.014.985 1.259 1.408 1.873.636l9.262-11.653c1.093-1.375.113-3.403-1.645-3.403h-9.642z" fill="#E2542F"/></g><text x="76" y="306" font-size="13" font-weight="700" fill="#E2542F">Supabase</text><text x="76" y="323" font-size="12" fill="#8b949e">Open-source Firebase alternative built on Postgres: auth, storage, realtime and edge functions, with</text><text x="76" y="339" font-size="12" fill="#8b949e">pgvector built in for AI workloads.</text></g>
</svg>
