<svg xmlns="http://www.w3.org/2000/svg" viewBox="0 0 109 30" width="109" height="30" font-family="Segoe UI, Ubuntu, Helvetica, Arial, sans-serif"><title>LangChain</title><g opacity="0"><animate attributeName="opacity" from="0" to="1" begin="0s" dur="0.5s" fill="freeze"/><g><animateTransform attributeName="transform" type="translate" values="0 1.2;0 -1.2;0 1.2" calcMode="spline" keySplines="0.4 0 0.6 1;0.4 0 0.6 1" keyTimes="0;0.5;1" dur="3.4s" begin="-0.9s" repeatCount="indefinite"/><rect x="1" y="4" width="107" height="22" rx="11" fill="#F4795B" fill-opacity="0.07" stroke="#F4795B" stroke-width="1.3"/><g transform="translate(12,8) scale(0.5833)"><path d="M13.796 0a6.93 6.93 0 0 0-4.91 2.019L5.451 5.455l3.273 3.27 3.432-3.432a2.284 2.284 0 0 1 3.277 0 2.28 2.28 0 0 1 0 3.275L12 12.001l3.273 3.273 3.433-3.435c2.692-2.692 2.692-7.127 0-9.82A6.92 6.92 0 0 0 13.796 0m-5.07 8.728-3.433 3.434c-2.692 2.693-2.692 7.126 0 9.819A6.92 6.92 0 0 0 10.203 24a6.93 6.93 0 0 0 4.911-2.02l3.432-3.432-3.271-3.272-3.433 3.433a2.284 2.284 0 0 1-3.277 0 2.28 2.28 0 0 1 0-3.276L12 12z" fill="#F4795B"/></g><text x="32" y="19" font-size="12" font-weight="600" fill="#F4795B">LangChain</text></g></g></svg>
