<svg xmlns="http://www.w3.org/2000/svg" viewBox="0 0 116 30" width="116" height="30" font-family="Segoe UI, Ubuntu, Helvetica, Arial, sans-serif"><title>OpenRouter</title><g opacity="0"><animate attributeName="opacity" from="0" to="1" begin="0s" dur="0.5s" fill="freeze"/><g><animateTransform attributeName="transform" type="translate" values="0 1.2;0 -1.2;0 1.2" calcMode="spline" keySplines="0.4 0 0.6 1;0.4 0 0.6 1" keyTimes="0;0.5;1" dur="4.1s" begin="-0.3s" repeatCount="indefinite"/><rect x="1" y="4" width="114" height="22" rx="11" fill="#7FA36B" fill-opacity="0.07" stroke="#7FA36B" stroke-width="1.3"/><g transform="translate(12,8) scale(0.5833)"><path d="M16.778 1.844v1.919q-.569-.026-1.138-.032-.708-.008-1.415.037c-1.93.126-4.023.728-6.149 2.237-2.911 2.066-2.731 1.95-4.14 2.75-.396.223-1.342.574-2.185.798-.841.225-1.753.333-1.751.333v4.229s.768.108 1.61.333c.842.224 1.789.575 2.185.799 1.41.798 1.228.683 4.14 2.75 2.126 1.509 4.22 2.11 6.148 2.236.88.058 1.716.041 2.555.005v1.918l7.222-4.168-7.222-4.17v2.176c-.86.038-1.611.065-2.278.021-1.364-.09-2.417-.357-3.979-1.465-2.244-1.593-2.866-2.027-3.68-2.508.889-.518 1.449-.906 3.822-2.59 1.56-1.109 2.614-1.377 3.978-1.466.667-.044 1.418-.017 2.278.02v2.176L24 6.014Z" fill="#7FA36B"/></g><text x="32" y="19" font-size="12" font-weight="600" fill="#7FA36B">OpenRouter</text></g></g></svg>
