<svg xmlns="http://www.w3.org/2000/svg" viewBox="0 0 94 30" width="94" height="30" font-family="Segoe UI, Ubuntu, Helvetica, Arial, sans-serif"><title>PyTorch</title><g opacity="0"><animate attributeName="opacity" from="0" to="1" begin="0s" dur="0.5s" fill="freeze"/><g><animateTransform attributeName="transform" type="translate" values="0 1.2;0 -1.2;0 1.2" calcMode="spline" keySplines="0.4 0 0.6 1;0.4 0 0.6 1" keyTimes="0;0.5;1" dur="3.9s" begin="-3.0s" repeatCount="indefinite"/><rect x="1" y="4" width="92" height="22" rx="11" fill="#ED8B66" fill-opacity="0.07" stroke="#ED8B66" stroke-width="1.3"/><g transform="translate(12,8) scale(0.5833)"><path d="M12.005 0L4.952 7.053a9.865 9.865 0 000 14.022 9.866 9.866 0 0014.022 0c3.984-3.9 3.986-10.205.085-14.023l-1.744 1.743c2.904 2.905 2.904 7.634 0 10.538s-7.634 2.904-10.538 0-2.904-7.634 0-10.538l4.647-4.646.582-.665zm3.568 3.899a1.327 1.327 0 00-1.327 1.327 1.327 1.327 0 001.327 1.328A1.327 1.327 0 0016.9 5.226 1.327 1.327 0 0015.573 3.9z" fill="#ED8B66"/></g><text x="32" y="19" font-size="12" font-weight="600" fill="#ED8B66">PyTorch</text></g></g></svg>
