<svg xmlns="http://www.w3.org/2000/svg" viewBox="0 0 73 30" width="73" height="30" font-family="Segoe UI, Ubuntu, Helvetica, Arial, sans-serif"><title>Qwen</title><g opacity="0"><animate attributeName="opacity" from="0" to="1" begin="0s" dur="0.5s" fill="freeze"/><g><animateTransform attributeName="transform" type="translate" values="0 1.2;0 -1.2;0 1.2" calcMode="spline" keySplines="0.4 0 0.6 1;0.4 0 0.6 1" keyTimes="0;0.5;1" dur="3.3s" begin="-2.0s" repeatCount="indefinite"/><rect x="1" y="4" width="71" height="22" rx="11" fill="#7FA36B" fill-opacity="0.07" stroke="#7FA36B" stroke-width="1.3"/><g transform="translate(12,8) scale(0.5833)"><path d="M23.919 14.545 20.817 9.17l1.47-2.544a.56.56 0 0 0 0-.566l-1.633-2.83a.57.57 0 0 0-.49-.283h-6.207L12.487.402a.57.57 0 0 0-.49-.284H8.732a.56.56 0 0 0-.49.284L5.139 5.775h-2.94a.56.56 0 0 0-.49.284L.077 8.887a.56.56 0 0 0 0 .567L3.18 14.83l-1.47 2.545a.56.56 0 0 0 0 .566l1.634 2.83a.57.57 0 0 0 .49.283h6.205l1.47 2.545a.57.57 0 0 0 .49.284h3.266a.57.57 0 0 0 .49-.284l3.104-5.375h2.94a.57.57 0 0 0 .49-.283l1.634-2.828a.55.55 0 0 0-.004-.568M8.733.686l1.634 2.828-1.634 2.828H21.8L20.164 9.17H7.425L5.63 6.06Zm1.306 19.801-6.205-.002 1.634-2.83h3.265L2.201 6.344h3.267q3.182 5.517 6.367 11.032zm10.124-5.66L18.53 12l-6.532 11.315-1.634-2.83c2.129-3.673 4.25-7.351 6.373-11.028h3.592l3.102 5.374z" fill="#7FA36B"/></g><text x="32" y="19" font-size="12" font-weight="600" fill="#7FA36B">Qwen</text></g></g></svg>
