<svg xmlns="http://www.w3.org/2000/svg" viewBox="0 0 80 30" width="80" height="30" font-family="Segoe UI, Ubuntu, Helvetica, Arial, sans-serif"><title>Redis</title><g opacity="0"><animate attributeName="opacity" from="0" to="1" begin="0s" dur="0.5s" fill="freeze"/><g><animateTransform attributeName="transform" type="translate" values="0 1.2;0 -1.2;0 1.2" calcMode="spline" keySplines="0.4 0 0.6 1;0.4 0 0.6 1" keyTimes="0;0.5;1" dur="3.6s" begin="-2.3s" repeatCount="indefinite"/><rect x="1" y="4" width="78" height="22" rx="11" fill="#7FA36B" fill-opacity="0.07" stroke="#7FA36B" stroke-width="1.3"/><g transform="translate(12,8) scale(0.5833)"><path d="M22.71 13.145c-1.66 2.092-3.452 4.483-7.038 4.483-3.203 0-4.397-2.825-4.48-5.12.701 1.484 2.073 2.685 4.214 2.63 4.117-.133 6.94-3.852 6.94-7.239 0-4.05-3.022-6.972-8.268-6.972-3.752 0-8.4 1.428-11.455 3.685C2.59 6.937 3.885 9.958 4.35 9.626c2.648-1.904 4.748-3.13 6.784-3.744C8.12 9.244.886 17.05 0 18.425c.1 1.261 1.66 4.648 2.424 4.648.232 0 .431-.133.664-.365a100.49 100.49 0 0 0 5.54-6.765c.222 3.104 1.748 6.898 6.014 6.898 3.819 0 7.604-2.756 9.33-8.965.2-.764-.73-1.361-1.261-.73zm-4.349-5.013c0 1.959-1.926 2.922-3.685 2.922-.941 0-1.664-.247-2.235-.568 1.051-1.592 2.092-3.225 3.21-4.973 1.972.334 2.71 1.43 2.71 2.619z" fill="#7FA36B"/></g><text x="32" y="19" font-size="12" font-weight="600" fill="#7FA36B">Redis</text></g></g></svg>
