<svg xmlns="http://www.w3.org/2000/svg" viewBox="0 0 109 30" width="109" height="30" font-family="Segoe UI, Ubuntu, Helvetica, Arial, sans-serif"><title>Streamlit</title><g opacity="0"><animate attributeName="opacity" from="0" to="1" begin="0s" dur="0.5s" fill="freeze"/><g><animateTransform attributeName="transform" type="translate" values="0 1.2;0 -1.2;0 1.2" calcMode="spline" keySplines="0.4 0 0.6 1;0.4 0 0.6 1" keyTimes="0;0.5;1" dur="4.3s" begin="-1.7s" repeatCount="indefinite"/><rect x="1" y="4" width="107" height="22" rx="11" fill="#F4795B" fill-opacity="0.07" stroke="#F4795B" stroke-width="1.3"/><g transform="translate(12,8) scale(0.5833)"><path d="M16.673 11.32l6.862-3.618c.233-.136.554.12.442.387L20.463 17.1zm-8.556-.229l3.473-5.187c.203-.328.578-.316.793-.028l7.886 11.75zm-3.375 7.25c-.28 0-.835-.284-.993-.716l-3.72-9.46c-.118-.331.139-.614.48-.464l19.474 10.306c-.149.147-.453.337-.72.334z" fill="#F4795B"/></g><text x="32" y="19" font-size="12" font-weight="600" fill="#F4795B">Streamlit</text></g></g></svg>
